<svg xmlns="http://www.w3.org/2000/svg" width="200" height="49.647" viewBox="0 0 200 49.647">
  <g id="Groupe_46" data-name="Groupe 46" transform="translate(-88.746 -51.526)">
    <path id="Tracé_192" data-name="Tracé 192" d="M1154.032,126.115c-.268,1.91-.209,1.659-1.931,1.661q-8.924.014-17.848.006c-.359,0-.718.032-1.227.056a7.6,7.6,0,0,0,.364.773,7.716,7.716,0,0,0,9.22,3.021,3.134,3.134,0,0,1,2.67.036c1.685.744,3.413,1.39,5.222,2.116a8.765,8.765,0,0,1-3.2,2.863,14.22,14.22,0,0,1-17.225-1.848,13.6,13.6,0,0,1-4.314-8.862,13.771,13.771,0,0,1,4.07-11.5,14.26,14.26,0,0,1,24.157,8.057A18.661,18.661,0,0,1,1154.032,126.115Zm-7.387-4.95c-.816-2.329-3.913-4.5-7.122-4.334-2.721.144-5.847,2.171-6.386,4.334Z" transform="translate(-865.354 -49.343)" fill="#121a39"/>
    <path id="Tracé_193" data-name="Tracé 193" d="M89.992,118.687a13.3,13.3,0,0,1,12.242-8.332,13.448,13.448,0,0,1,7.6,2.161c.23.147.471.277.762.447a1.607,1.607,0,0,0,.108-.4c-.1-1.768.263-1.495,1.67-1.508,1.253-.012,2.506-.007,3.759,0,1.045.005,1.1.059,1.1,1.126q.006,10.423,0,20.846c0,1.367-.025,2.735.009,4.1.017.71-.274.959-.962.947-1.537-.027-3.076-.034-4.613,0-.765.018-.973-.316-.969-1.028q.031-6.194.008-12.388a7.68,7.68,0,0,0-15.343-.6,7.5,7.5,0,0,0,6.337,7.964,12.674,12.674,0,0,0,3.449-.164c.633-.089.942.016,1.167.609q.8,2.117,1.678,4.2c.263.626.071.953-.536,1.166a13.5,13.5,0,0,1-13.328-1.951,13.677,13.677,0,0,1-5.1-8.621A14.007,14.007,0,0,1,89.992,118.687Z" transform="translate(0 -49.394)" fill="#121a39"/>
    <path id="Tracé_194" data-name="Tracé 194" d="M286.576,51.526a9.349,9.349,0,0,1,.167,1.256q.015,17.631.01,35.262c0,1.221-.025,1.245-1.24,1.247-1.423,0-2.846-.022-4.268.009-.713.016-1.022-.213-1.02-.976q.032-18.4.029-36.8Z" transform="translate(-158.76 0)" fill="#121a39"/>
    <path id="Tracé_195" data-name="Tracé 195" d="M359.69,112.9a1.767,1.767,0,0,0,.111-.416c-.1-1.76.252-1.493,1.672-1.506,1.253-.012,2.505-.007,3.758,0,1.044.005,1.1.059,1.1,1.127q.006,10.506,0,21.012c0,1.338-.017,2.677,0,4.015.01.624-.255.869-.867.862-1.566-.016-3.132-.03-4.7.006-.758.017-.98-.3-.976-1.021q.032-6.193.008-12.385a7.685,7.685,0,1,0-15.324.747,7.487,7.487,0,0,0,6.215,6.6,12.308,12.308,0,0,0,3.449-.128c.685-.1,1.047-.04,1.3.648q.745,2.045,1.612,4.045c.3.686.14,1.052-.558,1.292-4.759,1.635-9.277,1.16-13.24-1.976a14.709,14.709,0,0,1-1.037-21.843,13.583,13.583,0,0,1,16.637-1.579C359.112,112.56,359.374,112.708,359.69,112.9Z" transform="translate(-207.896 -49.316)" fill="#121a39"/>
    <path id="Tracé_196" data-name="Tracé 196" d="M965.918,112.624a29.427,29.427,0,0,1,3.5-1.767,10.787,10.787,0,0,1,10.662,1.61,11.705,11.705,0,0,1,4.68,9.294c.15,5.006.115,10.018.186,15.026.011.81-.286,1.125-1.1,1.1-1.48-.039-2.961,0-4.442-.013-1.02-.006-1.128-.11-1.129-1.135-.006-4.557-.027-9.114.006-13.67a6.232,6.232,0,0,0-10.189-4.926,6.316,6.316,0,0,0-2.271,5.216c-.01,4.414,0,8.829,0,13.243,0,1.261-.013,1.272-1.3,1.274-1.367,0-2.734,0-4.1,0-1.054,0-1.114-.061-1.114-1.116q0-9.056,0-18.113c0-2.25.025-4.5-.011-6.749-.012-.785.276-1.06,1.049-1.037,1.394.042,2.791.01,4.186.012,1.227,0,1.225,0,1.3,1.193C965.833,112.233,965.878,112.394,965.918,112.624Z" transform="translate(-726.423 -49.188)" fill="#121a39"/>
    <path id="Tracé_197" data-name="Tracé 197" d="M536.152,124.611c.619-.783,1.151-1.442,1.668-2.111,1.687-2.184,3.356-4.384,5.07-6.547a1.587,1.587,0,0,1,1.037-.585c2.362-.052,4.725-.028,7.089-.024a3.659,3.659,0,0,1,.557.116c-.807,1.011-1.539,1.935-2.278,2.853-2.8,3.479-5.591,6.967-8.423,10.421a.856.856,0,0,0,0,1.308q4.585,5.621,9.139,11.268c.168.207.318.429.587.794-.461.037-.73.077-1,.077-2.107.005-4.214-.016-6.32.013a1.729,1.729,0,0,1-1.581-.772c-1.617-2.2-3.286-4.366-4.938-6.542-.167-.22-.353-.426-.627-.756-.86,1.107-1.663,2.123-2.448,3.154-1.018,1.336-2.04,2.669-3.021,4.032a1.892,1.892,0,0,1-1.716.886c-2.049-.038-4.1-.01-6.149-.016-.3,0-.592-.049-1.071-.092.352-.486.579-.832.839-1.152q4.46-5.5,8.935-10.993c.421-.514.2-.869-.131-1.271q-2.961-3.642-5.912-7.292-2.147-2.654-4.284-5.316a6.949,6.949,0,0,1-.387-.63c.4-.039.689-.091.979-.092,2.05-.007,4.1.032,6.149-.022a1.916,1.916,0,0,1,1.725.857c1.909,2.516,3.838,5.017,5.762,7.522C535.609,123.963,535.829,124.217,536.152,124.611Z" transform="translate(-360.586 -53.519)" fill="#121a39"/>
    <path id="Tracé_198" data-name="Tracé 198" d="M794.755,128.569c1.36,0,2.721,0,4.081,0,2.1-.008,2.969-.87,2.973-2.949,0-1.139.015-2.279-.005-3.417a2.387,2.387,0,0,0-2.475-2.481c-1.623-.022-3.247-.036-4.869,0-.79.02-1.053-.284-1.033-1.053.039-1.565.02-3.132.008-4.7a2.419,2.419,0,0,0-2.59-2.63q-1.836-.021-3.674,0a2.4,2.4,0,0,0-2.578,2.562c-.032,1.594-.039,3.19,0,4.784.02.788-.281,1.054-1.052,1.035-1.565-.039-3.132-.02-4.7-.008a2.4,2.4,0,0,0-2.615,2.6c-.019,1.224-.021,2.45,0,3.674a2.383,2.383,0,0,0,2.573,2.566q2.391.045,4.784,0c.732-.015,1.024.245,1.006.992-.036,1.48-.015,2.962-.009,4.443.008,2.056.871,2.926,2.9,2.935.541,0,1.082,0,1.623,0,.485,0,.928.018.934.688s-.412.725-.91.722a14.221,14.221,0,0,1-10.11-24.419,14.26,14.26,0,0,1,23.906,7.511,13.925,13.925,0,0,1-2.314,10.893c-.444.664-.808.729-1.412.215-1.491-1.267-3.016-2.494-4.527-3.736Z" transform="translate(-572.461 -48.964)" fill="#20cbd9"/>
    <path id="Tracé_199" data-name="Tracé 199" d="M723.022,127.926q0,6.151,0,12.3c0,1.131-.088,1.215-1.217,1.219-1.481.005-2.962-.019-4.442.008-.733.013-1.011-.288-1.01-1.016q.019-12.473,0-24.946c0-.767.28-1.077,1.056-1.06,1.508.034,3.019.038,4.527,0,.818-.022,1.1.3,1.1,1.106C723.009,119.667,723.021,123.8,723.022,127.926Z" transform="translate(-523.385 -52.779)" fill="#121a39"/>
    <path id="Tracé_200" data-name="Tracé 200" d="M868.3,222.59c0-3.614-.007-7.228.011-10.842a4.58,4.58,0,0,1,.245-1.028,4.249,4.249,0,0,1,1.012.452q8.008,6.509,15.983,13.057a3.313,3.313,0,0,1,.53.79,3.131,3.131,0,0,1-.968.356c-2.845.029-5.692.06-8.536,0a2.245,2.245,0,0,0-2.226,1.166c-1.53,2.432-3.166,4.8-4.762,7.188a3.341,3.341,0,0,1-.454.617c-.364.338-.683.29-.8-.229a3.92,3.92,0,0,1-.042-.85q0-5.336,0-10.672Z" transform="translate(-650.317 -133.382)" fill="#121a39"/>
    <path id="Tracé_201" data-name="Tracé 201" d="M719.57,89.568c-.8,0-1.592-.01-2.387,0-.539.009-.779-.238-.774-.771q.013-1.279,0-2.558c-.005-.514.192-.8.748-.8,1.677.009,3.354.006,5.03,0a.632.632,0,0,1,.726.727c-.006.881-.009,1.762,0,2.643.007.549-.263.762-.787.755C721.275,89.559,720.422,89.568,719.57,89.568Z" transform="translate(-523.43 -28.121)" fill="#121a39"/>
  </g>
</svg>
