<svg id="angles-right-solid" xmlns="http://www.w3.org/2000/svg" width="18" height="18" viewBox="0 0 24 24">
  <rect id="Rectangle_1953" data-name="Rectangle 1953" width="18" height="18" fill="none"/>
  <path id="angles-right-solid-2" data-name="angles-right-solid" d="M85.1,75.1a1.669,1.669,0,0,0,0-2.358l-8.33-8.33a1.668,1.668,0,0,0-2.358,2.358l7.153,7.153-7.148,7.153a1.668,1.668,0,0,0,2.358,2.358l8.33-8.33Zm-18.326,8.33L75.1,75.1a1.669,1.669,0,0,0,0-2.358l-8.33-8.33a1.668,1.668,0,0,0-2.358,2.358l7.153,7.153-7.148,7.153a1.668,1.668,0,0,0,2.358,2.358Z" transform="translate(-62.755 -61.925)" fill="#121a39"/>
</svg>
