<svg id="angles-left-solid" xmlns="http://www.w3.org/2000/svg" width="18" height="18" viewBox="0 0 24 24">
  <rect id="Rectangle_1952" data-name="Rectangle 1952" width="18" height="18" fill="none"/>
  <path id="angles-left-solid-2" data-name="angles-left-solid" d="M32.513,72.748a1.669,1.669,0,0,0,0,2.358l8.33,8.33A1.668,1.668,0,0,0,43.2,81.078l-7.153-7.153L43.2,66.772a1.668,1.668,0,1,0-2.358-2.358l-8.33,8.33Zm18.326-8.33-8.33,8.33a1.669,1.669,0,0,0,0,2.358l8.33,8.33A1.668,1.668,0,0,0,53.2,81.078l-7.153-7.153,7.148-7.153a1.668,1.668,0,0,0-2.358-2.358Z" transform="translate(-30.855 -61.925)" fill="#121a39"/>
</svg>
