<svg id="calendar-xmark-solid" xmlns="http://www.w3.org/2000/svg" width="32" height="32" viewBox="0 0 32 32">
  <rect id="Rectangle_1755" data-name="Rectangle 1755" width="32" height="32" fill="none"/>
  <path id="calendar-xmark-solid-2" data-name="calendar-xmark-solid" d="M38.857,0a1.712,1.712,0,0,1,1.714,1.714V3.429h6.857V1.714a1.714,1.714,0,1,1,3.429,0V3.429h2.571A2.572,2.572,0,0,1,56,6V8.571H32V6a2.572,2.572,0,0,1,2.571-2.571h2.571V1.714A1.712,1.712,0,0,1,38.857,0ZM32,10.286H56V24.857a2.572,2.572,0,0,1-2.571,2.571H34.571A2.572,2.572,0,0,1,32,24.857Zm16.339,6.054a1.284,1.284,0,1,0-1.816-1.816l-2.518,2.518-2.518-2.518a1.284,1.284,0,1,0-1.816,1.816l2.518,2.518-2.518,2.518a1.284,1.284,0,0,0,1.816,1.816l2.518-2.518,2.518,2.518a1.284,1.284,0,0,0,1.816-1.816l-2.518-2.518Z" transform="translate(-28 1.333)" fill="#d27c1a"/>
</svg>
