<svg id="calendar-check-solid" xmlns="http://www.w3.org/2000/svg" width="32" height="32" viewBox="0 0 32 32">
  <rect id="Rectangle_1755" data-name="Rectangle 1755" width="32" height="32" fill="none"/>
  <path id="calendar-check-solid-2" data-name="calendar-check-solid" d="M6.857,0A1.712,1.712,0,0,1,8.571,1.714V3.429h6.857V1.714a1.714,1.714,0,0,1,3.429,0V3.429h2.571A2.572,2.572,0,0,1,24,6V8.571H0V6A2.572,2.572,0,0,1,2.571,3.429H5.143V1.714A1.712,1.712,0,0,1,6.857,0ZM0,10.286H24V24.857a2.572,2.572,0,0,1-2.571,2.571H2.571A2.572,2.572,0,0,1,0,24.857Zm17.625,6.054a1.284,1.284,0,0,0-1.816-1.816L10.72,19.612,8.2,17.095a1.284,1.284,0,0,0-1.816,1.816l3.429,3.429a1.28,1.28,0,0,0,1.816,0Z" transform="translate(4 1.333)" fill="#4b5067"/>
</svg>
