<svg id="Groupe_1312" data-name="Groupe 1312" xmlns="http://www.w3.org/2000/svg" xmlns:xlink="http://www.w3.org/1999/xlink" width="600" height="397.618" viewBox="0 0 600 397.618">
  <defs>
    <clipPath id="clip-path">
      <rect id="Rectangle_1781" data-name="Rectangle 1781" width="600" height="397.618" fill="none"/>
    </clipPath>
    <clipPath id="clip-path-2">
      <path id="Tracé_1618" data-name="Tracé 1618" d="M197.068,0c-46.778.105-39.848,55.013-91.621,70.417C16.355,96.927,91.4,210.393,77.086,241.787S56.673,372.541,135.994,379.142s196.237-11.813,196.237-11.813,206.87-17.212,259.438-75.412,25.924-108.74-19.559-119.467-54.467-25.509-32.73-48.652,47.8-68.894-6.294-107.272c-32.3-22.916-63.567-8.144-93.2,6.628-19.994,9.966-39.245,19.933-57.566,18.324-45.475-3.992-30.393-33.361-87.364-8.673S245.674.582,197.941.007l-.594,0Z" transform="translate(-61.067 -0.003)" fill="none"/>
    </clipPath>
    <linearGradient id="linear-gradient" x1="0.5" x2="0.5" y2="1" gradientUnits="objectBoundingBox">
      <stop offset="0" stop-color="#edeef2"/>
      <stop offset="1" stop-color="#f5f6fa"/>
    </linearGradient>
    <clipPath id="clip-path-3">
      <rect id="Rectangle_1704" data-name="Rectangle 1704" width="599.999" height="397.617" fill="none"/>
    </clipPath>
    <clipPath id="clip-path-4">
      <path id="Tracé_1629" data-name="Tracé 1629" d="M397.422,204.269l-74.937,1.188a2.179,2.179,0,0,0-2.145,2.18v.178a2.179,2.179,0,0,0,2.219,2.18l74.937-1.366a2.18,2.18,0,0,0-.039-4.359h-.035" transform="translate(-320.34 -204.269)" fill="none"/>
    </clipPath>
    <linearGradient id="linear-gradient-2" x1="-1.126" y1="59.271" x2="-1.122" y2="59.271" gradientUnits="objectBoundingBox">
      <stop offset="0" stop-color="#dae3fe"/>
      <stop offset="1" stop-color="#e9effd"/>
    </linearGradient>
    <clipPath id="clip-path-5">
      <path id="Tracé_1632" data-name="Tracé 1632" d="M859.912,1070.35l-8.982,80.56H955.144l-13.574-80.56Z" transform="translate(-850.93 -1070.35)" fill="none"/>
    </clipPath>
    <clipPath id="clip-path-6">
      <path id="Tracé_1633" data-name="Tracé 1633" d="M889.913,1337.342l-147.038,4.588c-3.042.1-5.6,1.8-6.191,4.132l-1.957,7.74c-.8,3.169,2.311,6.118,6.454,6.118H893.7c4.21,0,7.337-3.04,6.42-6.243l-3.528-12.329c-.673-2.351-3.35-4.011-6.418-4.011q-.133,0-.266,0" transform="translate(-734.6 -1337.338)" fill="none"/>
    </clipPath>
    <clipPath id="clip-path-7">
      <path id="Tracé_1634" data-name="Tracé 1634" d="M348.8,249.644a22.791,22.791,0,0,0-22.281,22.79v206.7a31.356,31.356,0,0,0,30.547,31.347c75.5,1.947,269.942,6.667,341.809,5.607a23.071,23.071,0,0,0,22.714-22.414c1.386-48.018,3.637-163.486-4.692-217.093a23.743,23.743,0,0,0-22.7-20.1c-56.318-1.8-229.209-7.092-317.15-7.093-10.833,0-20.367.08-28.245.257" transform="translate(-326.514 -249.387)" fill="none"/>
    </clipPath>
    <clipPath id="clip-path-8">
      <path id="Tracé_1635" data-name="Tracé 1635" d="M373.018,292.192V488.566a18.167,18.167,0,0,0,17.9,18.165l331.151,4.951a17.681,17.681,0,0,0,17.945-17.613l.67-194.62a12.931,12.931,0,0,0-12.616-12.975l-340.7-8.289q-.174,0-.348,0a14.01,14.01,0,0,0-14,14.011" transform="translate(-373.018 -278.181)" fill="none"/>
    </clipPath>
    <linearGradient id="linear-gradient-3" x1="0.5" x2="0.5" y2="1" gradientUnits="objectBoundingBox">
      <stop offset="0" stop-color="#f5f6fa"/>
      <stop offset="1" stop-color="#edeef5"/>
    </linearGradient>
    <clipPath id="clip-path-10">
      <path id="Tracé_1647" data-name="Tracé 1647" d="M631.511,833.254a1.362,1.362,0,0,0-.955,1.672q.291,1.063.6,2.119a1.362,1.362,0,0,0,2.613-.767q-.3-1.031-.587-2.07a1.36,1.36,0,0,0-1.672-.954" transform="translate(-630.508 -833.205)" fill="none"/>
    </clipPath>
    <clipPath id="clip-path-11">
      <path id="Tracé_1648" data-name="Tracé 1648" d="M618.667,443.427A1.362,1.362,0,0,0,617.551,445c.242,1.438.517,2.893.814,4.325a1.362,1.362,0,0,0,2.667-.555c-.291-1.4-.559-2.82-.8-4.223a1.36,1.36,0,0,0-1.344-1.135,1.416,1.416,0,0,0-.226.018m-1.208-11.349a1.362,1.362,0,0,0-1.265,1.452c.1,1.459.229,2.934.383,4.384a1.362,1.362,0,0,0,2.708-.288c-.151-1.416-.277-2.856-.374-4.282a1.362,1.362,0,0,0-1.363-1.268l-.089,0m-1.488-10.093c-.034,1.164-.052,2.343-.052,3.506q0,.447,0,.894a1.362,1.362,0,0,0,1.362,1.352h.01a1.361,1.361,0,0,0,1.352-1.372q0-.437,0-.874c0-1.136.017-2.289.05-3.425a1.362,1.362,0,0,0-1.321-1.4h-.013a1.376,1.376,0,0,0-1.389,1.321m.9-11.508c-.184,1.447-.344,2.918-.474,4.372a1.362,1.362,0,0,0,1.235,1.478c.041,0,.083.006.123.006a1.362,1.362,0,0,0,1.355-1.24c.127-1.422.283-2.859.463-4.273a1.362,1.362,0,0,0-1.179-1.523,1.411,1.411,0,0,0-.173-.011,1.362,1.362,0,0,0-1.349,1.19m2.015-11.366c-.325,1.425-.628,2.874-.9,4.306a1.362,1.362,0,1,0,2.676.506c.265-1.4.561-2.815.878-4.206a1.362,1.362,0,1,0-2.655-.606M622.01,388c-.464,1.384-.908,2.8-1.32,4.2a1.362,1.362,0,1,0,2.613.768c.4-1.368.836-2.747,1.289-4.1A1.362,1.362,0,1,0,622.01,388m4.216-10.761c-.6,1.333-1.184,2.7-1.735,4.056a1.362,1.362,0,1,0,2.524,1.023c.537-1.326,1.107-2.659,1.694-3.962a1.361,1.361,0,1,0-2.483-1.118m5.265-10.3c-.73,1.268-1.445,2.567-2.127,3.862a1.362,1.362,0,1,0,2.41,1.268c.665-1.264,1.364-2.533,2.077-3.771a1.362,1.362,0,1,0-2.36-1.359m6.254-9.72c-.852,1.191-1.691,2.412-2.5,3.63a1.362,1.362,0,1,0,2.273,1.5c.785-1.19,1.605-2.383,2.438-3.546a1.362,1.362,0,1,0-2.215-1.585m7.177-9.054c-.964,1.1-1.919,2.233-2.839,3.366a1.362,1.362,0,1,0,2.114,1.716c.9-1.107,1.832-2.213,2.773-3.287a1.362,1.362,0,1,0-2.048-1.795m8.026-8.3c-1.063,1-2.123,2.029-3.153,3.069a1.362,1.362,0,1,0,1.936,1.916c1.006-1.017,2.043-2.026,3.08-3a1.362,1.362,0,1,0-1.863-1.987m8.8-7.476c-1.156.888-2.312,1.812-3.437,2.745a1.362,1.362,0,0,0,1.739,2.1c1.1-.912,2.228-1.814,3.357-2.682a1.362,1.362,0,0,0-1.66-2.16m9.481-6.577c-1.237.771-2.477,1.577-3.686,2.395a1.362,1.362,0,0,0,1.526,2.256c1.181-.8,2.393-1.587,3.6-2.34a1.362,1.362,0,0,0-1.441-2.311M786.433,322.4a1.362,1.362,0,0,0,.561,1.842c1.259.671,2.523,1.375,3.755,2.093a1.362,1.362,0,0,0,1.371-2.353c-1.262-.735-2.556-1.456-3.844-2.143a1.362,1.362,0,0,0-1.842.561M681.3,320.2c-1.3.644-2.616,1.324-3.9,2.021a1.362,1.362,0,0,0,1.3,2.395c1.255-.681,2.537-1.344,3.81-1.974A1.362,1.362,0,1,0,681.3,320.2m94.747-2.54a1.362,1.362,0,0,0,.741,1.777c1.324.545,2.651,1.121,3.943,1.71a1.362,1.362,0,1,0,1.131-2.477c-1.324-.6-2.682-1.194-4.039-1.752a1.362,1.362,0,0,0-1.777.742M691.875,315.6c-1.366.515-2.738,1.062-4.078,1.626a1.362,1.362,0,1,0,1.056,2.511c1.309-.551,2.649-1.085,3.983-1.588a1.362,1.362,0,1,0-.961-2.549m73.37-1.633a1.362,1.362,0,0,0,.914,1.7c1.366.409,2.743.85,4.095,1.311a1.362,1.362,0,0,0,.88-2.577c-1.384-.472-2.794-.924-4.193-1.343a1.362,1.362,0,0,0-1.7.914m-62.387-1.9c-1.406.376-2.829.785-4.229,1.217a1.362,1.362,0,1,0,.8,2.6c1.367-.422,2.757-.822,4.129-1.189a1.362,1.362,0,1,0-.7-2.631m51.272-.7a1.362,1.362,0,0,0,1.077,1.6c1.4.272,2.816.576,4.2.9a1.362,1.362,0,1,0,.621-2.652c-1.421-.332-2.87-.643-4.3-.922a1.36,1.36,0,0,0-1.6,1.077m-39.985-1.724c-1.441.235-2.9.5-4.328.792a1.362,1.362,0,1,0,.541,2.669c1.4-.283,2.819-.544,4.227-.774a1.362,1.362,0,1,0-.44-2.688m28.667.226a1.361,1.361,0,0,0,1.227,1.484c1.424.135,2.862.3,4.273.485a1.362,1.362,0,0,0,.358-2.7c-1.445-.191-2.916-.358-4.374-.5a1.328,1.328,0,0,0-.133-.006,1.357,1.357,0,0,0-1.351,1.234m-17.2-1.524c-1.462.093-2.937.214-4.384.361a1.362,1.362,0,0,0,.274,2.71c1.414-.143,2.856-.262,4.283-.353a1.362,1.362,0,0,0-.083-2.721c-.03,0-.06,0-.09,0m7.145-.235a1.362,1.362,0,0,0,0,2.723h.3c1.324,0,2.672.023,4,.069h.048a1.362,1.362,0,0,0,.046-2.723c-1.364-.047-2.743-.071-4.1-.071Z" transform="translate(-615.919 -308.113)" fill="none"/>
    </clipPath>
    <clipPath id="clip-path-12">
      <path id="Tracé_1649" data-name="Tracé 1649" d="M1262.261,378.462a1.362,1.362,0,0,0,.375,1.889q.9.6,1.778,1.212a1.362,1.362,0,0,0,1.554-2.236q-.9-.629-1.82-1.24a1.361,1.361,0,0,0-1.889.375" transform="translate(-1262.031 -377.857)" fill="none"/>
    </clipPath>
    <clipPath id="clip-path-13">
      <path id="Tracé_1650" data-name="Tracé 1650" d="M1439.889,640.8a1.362,1.362,0,0,0-1.063,1.606q.214,1.053.408,2.113a1.362,1.362,0,0,0,1.338,1.116,1.379,1.379,0,0,0,.247-.023,1.362,1.362,0,0,0,1.094-1.585q-.2-1.086-.418-2.164a1.36,1.36,0,0,0-1.606-1.063" transform="translate(-1438.798 -640.772)" fill="none"/>
    </clipPath>
    <clipPath id="clip-path-14">
      <path id="Tracé_1651" data-name="Tracé 1651" d="M875.274,802.992c-1.4.061-2.826.1-4.226.106a1.362,1.362,0,0,0,.009,2.723h.009c1.434-.009,2.89-.046,4.326-.109a1.362,1.362,0,0,0-.065-2.722h-.053m-16.8.887a1.362,1.362,0,0,0,1.236,1.477q1.165.1,2.337.185.994.069,1.986.121c.024,0,.048,0,.072,0a1.362,1.362,0,0,0,.07-2.721q-.969-.051-1.941-.118-1.145-.079-2.284-.18c-.043,0-.085-.006-.127-.006a1.36,1.36,0,0,0-1.351,1.241m27.852-1.908c-1.384.2-2.8.37-4.2.516a1.362,1.362,0,0,0,.282,2.709c1.435-.15,2.881-.327,4.3-.528a1.362,1.362,0,0,0-.185-2.711,1.4,1.4,0,0,0-.2.014m-38.966.248a1.362,1.362,0,0,0,1.088,1.589c1.406.263,2.844.5,4.272.718a1.382,1.382,0,0,0,.2.015,1.362,1.362,0,0,0,.2-2.709c-1.4-.208-2.8-.443-4.173-.7a1.381,1.381,0,0,0-.25-.023,1.363,1.363,0,0,0-1.34,1.111m49.865-2.339c-1.362.331-2.75.641-4.128.922a1.362,1.362,0,0,0,.271,2.7,1.377,1.377,0,0,0,.274-.028c1.411-.288,2.832-.606,4.226-.944a1.362,1.362,0,1,0-.643-2.646m-60.766-.388a1.362,1.362,0,0,0,.929,1.687c1.377.4,2.785.779,4.183,1.128a1.362,1.362,0,0,0,.661-2.642c-1.366-.342-2.74-.712-4.085-1.1a1.361,1.361,0,0,0-1.687.929m71.4-2.752c-1.32.461-2.668.9-4.007,1.316a1.362,1.362,0,1,0,.8,2.6c1.371-.422,2.752-.876,4.1-1.348a1.362,1.362,0,1,0-.9-2.571m-81.98-1.023a1.361,1.361,0,0,0,.76,1.769c1.336.534,2.7,1.049,4.053,1.531a1.362,1.362,0,1,0,.914-2.565c-1.321-.471-2.653-.974-3.958-1.495a1.358,1.358,0,0,0-1.769.76m92.252-3.135c-1.272.588-2.572,1.161-3.864,1.7a1.362,1.362,0,1,0,1.051,2.512c1.323-.553,2.654-1.139,3.956-1.742a1.362,1.362,0,1,0-1.143-2.472m-102.416-1.656a1.361,1.361,0,0,0,.583,1.835c1.274.659,2.58,1.3,3.884,1.919a1.362,1.362,0,1,0,1.16-2.464c-1.273-.6-2.549-1.23-3.793-1.874a1.36,1.36,0,0,0-1.835.584m112.243-3.481c-1.21.708-2.449,1.4-3.684,2.068a1.362,1.362,0,0,0,1.29,2.4c1.265-.68,2.533-1.392,3.771-2.118a1.362,1.362,0,1,0-1.377-2.35M806.063,785.17a1.361,1.361,0,0,0,.4,1.883c1.207.782,2.445,1.552,3.678,2.287a1.362,1.362,0,0,0,1.4-2.339c-1.2-.719-2.414-1.47-3.593-2.234a1.361,1.361,0,0,0-1.882.4m131.181-3.789c-1.139.825-2.307,1.637-3.469,2.415a1.362,1.362,0,1,0,1.514,2.263c1.191-.8,2.385-1.628,3.552-2.472a1.362,1.362,0,0,0-1.6-2.206m8.666-6.933c-1.055.931-2.139,1.853-3.222,2.739a1.362,1.362,0,0,0,.863,2.415,2.6,2.6,0,0,0,.862-.308s2.219-1.851,3.3-2.8a1.362,1.362,0,1,0-1.8-2.042m7.962-7.738c-.958,1.025-1.948,2.048-2.945,3.039a1.362,1.362,0,1,0,1.92,1.931c1.02-1.014,2.034-2.061,3.015-3.11a1.362,1.362,0,0,0-1.99-1.859m7.182-8.472c-.853,1.112-1.742,2.225-2.64,3.31a1.362,1.362,0,1,0,2.1,1.737c.92-1.11,1.829-2.25,2.7-3.389a1.362,1.362,0,1,0-2.16-1.658m6.331-9.131c-.742,1.19-1.519,2.385-2.308,3.552a1.362,1.362,0,1,0,2.256,1.526c.808-1.195,1.6-2.418,2.363-3.636a1.362,1.362,0,0,0-2.311-1.442M972.8,739.4c-.626,1.262-1.283,2.528-1.952,3.762a1.361,1.361,0,1,0,2.393,1.3c.687-1.264,1.359-2.56,2-3.852a1.362,1.362,0,1,0-2.44-1.21m4.446-10.194c-.5,1.317-1.03,2.642-1.577,3.938a1.362,1.362,0,1,0,2.509,1.06c.56-1.328,1.1-2.684,1.615-4.032a1.362,1.362,0,0,0-2.547-.966m3.422-10.556c-.366,1.353-.764,2.719-1.182,4.061a1.362,1.362,0,1,0,2.6.809c.427-1.374.835-2.772,1.21-4.158a1.362,1.362,0,0,0-2.629-.712m2.38-10.84c-.234,1.382-.5,2.781-.782,4.157a1.362,1.362,0,0,0,1.057,1.61,1.384,1.384,0,0,0,.278.029,1.362,1.362,0,0,0,1.332-1.086c.292-1.408.562-2.84.8-4.255a1.362,1.362,0,0,0-2.685-.454m1.324-11.02c-.1,1.406-.23,2.824-.38,4.213a1.362,1.362,0,0,0,2.708.294c.154-1.422.285-2.873.389-4.311a1.362,1.362,0,0,0-1.26-1.456c-.034,0-.067,0-.1,0a1.359,1.359,0,0,0-1.356,1.264m1.6-12.495a1.362,1.362,0,0,0-1.329,1.394q.033,1.373.033,2.755,0,.737-.01,1.476a1.362,1.362,0,0,0,1.344,1.379h.018a1.362,1.362,0,0,0,1.362-1.344q.009-.757.01-1.512,0-1.414-.034-2.82a1.354,1.354,0,0,0-1.37-1.329h-.023m-.943-11.194a1.362,1.362,0,0,0-1.188,1.516c.169,1.394.315,2.81.432,4.208a1.362,1.362,0,0,0,1.355,1.248c.038,0,.077,0,.116-.005a1.361,1.361,0,0,0,1.243-1.471c-.12-1.432-.269-2.882-.442-4.309a1.363,1.363,0,0,0-1.35-1.2,1.392,1.392,0,0,0-.166.01" transform="translate(-805.844 -673.093)" fill="none"/>
    </clipPath>
    <clipPath id="clip-path-15">
      <path id="Tracé_1652" data-name="Tracé 1652" d="M779.228,1054.287a1.361,1.361,0,0,0,.252,1.909q.874.67,1.761,1.324a1.362,1.362,0,1,0,1.616-2.193q-.866-.638-1.72-1.293a1.361,1.361,0,0,0-1.909.252" transform="translate(-778.947 -1053.754)" fill="none"/>
    </clipPath>
    <clipPath id="clip-path-16">
      <path id="Tracé_1653" data-name="Tracé 1653" d="M802.1,404.327,795,419.684a73.732,73.732,0,0,0-22.881,6.88l-14.395-8.911a1.39,1.39,0,0,0-1.612.1L740.381,430.6a1.391,1.391,0,0,0-.426,1.558l5.843,15.889a73.739,73.739,0,0,0-11.328,21.037L718,472.957a1.39,1.39,0,0,0-1.065,1.214l-2.047,20.2a1.391,1.391,0,0,0,.8,1.4l15.358,7.1a73.755,73.755,0,0,0,6.88,22.881l-8.911,14.395a1.391,1.391,0,0,0,.1,1.612L741.959,557.5a1.391,1.391,0,0,0,1.558.426l15.889-5.843a73.742,73.742,0,0,0,21.037,11.329l3.875,16.469a1.39,1.39,0,0,0,1.213,1.065l20.2,2.047a1.392,1.392,0,0,0,1.4-.8l7.1-15.357a73.747,73.747,0,0,0,22.881-6.88l14.395,8.911a1.391,1.391,0,0,0,1.612-.105l15.733-12.839a1.39,1.39,0,0,0,.426-1.558l-5.843-15.889a73.743,73.743,0,0,0,11.329-21.037l16.469-3.875a1.391,1.391,0,0,0,1.065-1.214l2.047-20.2a1.39,1.39,0,0,0-.8-1.4l-15.358-7.1a73.727,73.727,0,0,0-6.88-22.881l8.911-14.4a1.391,1.391,0,0,0-.105-1.611L867.28,429.019a1.39,1.39,0,0,0-1.558-.426l-15.889,5.843A73.736,73.736,0,0,0,828.8,423.107l-3.875-16.469a1.391,1.391,0,0,0-1.213-1.065l-20.2-2.046a1.413,1.413,0,0,0-.141-.007,1.39,1.39,0,0,0-1.261.808" transform="translate(-714.881 -403.519)" fill="none"/>
    </clipPath>
    <linearGradient id="linear-gradient-4" x1="-0.647" y1="1.275" x2="-0.646" y2="1.275" gradientUnits="objectBoundingBox">
      <stop offset="0" stop-color="#20cbd9"/>
      <stop offset="1" stop-color="#20cbd9"/>
    </linearGradient>
    <clipPath id="clip-path-17">
      <path id="Tracé_1654" data-name="Tracé 1654" d="M977.1,689.44a16.942,16.942,0,0,1,7.635-30.36,17.212,17.212,0,0,1,2.506-.184,16.944,16.944,0,0,1,2.434,33.707,17.207,17.207,0,0,1-2.506.184,16.819,16.819,0,0,1-10.07-3.347m7.318-32.515a19.123,19.123,0,0,0,2.747,38.041,19.41,19.41,0,0,0,2.828-.208,19.123,19.123,0,0,0-2.747-38.041,19.456,19.456,0,0,0-2.828.208" transform="translate(-968.078 -656.717)" fill="none"/>
    </clipPath>
    <clipPath id="clip-path-18">
      <path id="Tracé_1655" data-name="Tracé 1655" d="M860.365,591.112a49.574,49.574,0,0,0,4.423,26.02.545.545,0,1,0,.986-.464,48.366,48.366,0,1,1,28.9,25.53.545.545,0,1,0-.336,1.036,49.552,49.552,0,1,0-33.976-52.122" transform="translate(-860.112 -546.558)" fill="none"/>
    </clipPath>
    <clipPath id="clip-path-19">
      <path id="Tracé_1656" data-name="Tracé 1656" d="M1407.728,345.694l-2.037,5.518a25.634,25.634,0,0,0-7.74,3.015l-5.234-2.692a.484.484,0,0,0-.556.081l-5.1,4.883a.484.484,0,0,0-.1.552l2.463,5.345a25.641,25.641,0,0,0-3.346,7.6l-5.6,1.8a.483.483,0,0,0-.336.45l-.153,7.058a.484.484,0,0,0,.316.464l5.518,2.037a25.633,25.633,0,0,0,3.015,7.74l-2.691,5.234a.484.484,0,0,0,.081.556l4.883,5.1a.483.483,0,0,0,.551.1l5.345-2.463a25.646,25.646,0,0,0,7.6,3.346l1.8,5.6a.483.483,0,0,0,.45.336l7.058.153a.484.484,0,0,0,.464-.316l2.037-5.518a25.637,25.637,0,0,0,7.739-3.015l5.234,2.692a.485.485,0,0,0,.556-.081l5.1-4.883a.483.483,0,0,0,.1-.551l-2.463-5.346a25.632,25.632,0,0,0,3.346-7.6l5.6-1.8a.484.484,0,0,0,.336-.45l.153-7.058a.484.484,0,0,0-.316-.464l-5.518-2.037a25.636,25.636,0,0,0-3.015-7.74l2.692-5.234a.484.484,0,0,0-.081-.556l-4.883-5.1a.483.483,0,0,0-.551-.1l-5.345,2.463a25.64,25.64,0,0,0-7.6-3.346l-1.8-5.6a.484.484,0,0,0-.45-.336l-7.058-.152h-.011a.483.483,0,0,0-.453.316" transform="translate(-1379.985 -345.378)" fill="none"/>
    </clipPath>
    <clipPath id="clip-path-20">
      <path id="Tracé_1657" data-name="Tracé 1657" d="M1470.714,444a5.724,5.724,0,1,1,4.32.728,5.775,5.775,0,0,1-1.292.147,5.688,5.688,0,0,1-3.028-.875m1.515-11.491a6.815,6.815,0,0,0,1.511,13.456,6.878,6.878,0,0,0,1.538-.175,6.813,6.813,0,1,0-3.049-13.281" transform="translate(-1466.938 -432.334)" fill="none"/>
    </clipPath>
    <clipPath id="clip-path-22">
      <rect id="Rectangle_1731" data-name="Rectangle 1731" width="52.197" height="61.329" fill="none"/>
    </clipPath>
    <clipPath id="clip-path-23">
      <path id="Tracé_1658" data-name="Tracé 1658" d="M1371.38,524.214a1.362,1.362,0,0,1-1.14-.615c-.409-.625-.807-1.272-1.182-1.922a1.362,1.362,0,1,1,2.36-1.359c.349.605.718,1.207,1.1,1.788a1.362,1.362,0,0,1-1.138,2.108" transform="translate(-1368.876 -519.635)" fill="none"/>
    </clipPath>
    <clipPath id="clip-path-24">
      <path id="Tracé_1659" data-name="Tracé 1659" d="M1354.2,369.06a1.362,1.362,0,0,1-1.288-.92,39.849,39.849,0,0,1-1.141-4l-.1-.427a1.362,1.362,0,1,1,2.66-.583l.09.4a37.132,37.132,0,0,0,1.063,3.725,1.362,1.362,0,0,1-1.288,1.8m-2.059-11.433a1.362,1.362,0,0,1-1.361-1.328q-.012-.483-.012-.965c0-1.209.057-2.432.17-3.634a1.362,1.362,0,1,1,2.712.254c-.105,1.118-.158,2.255-.158,3.38q0,.448.011.9a1.361,1.361,0,0,1-1.328,1.4h-.034m1.512-11.517a1.363,1.363,0,0,1-1.307-1.745,39.424,39.424,0,0,1,1.551-4.331,1.362,1.362,0,1,1,2.506,1.067,36.638,36.638,0,0,0-1.444,4.03,1.363,1.363,0,0,1-1.306.979m4.935-10.514a1.362,1.362,0,0,1-1.128-2.122,39.519,39.519,0,0,1,2.785-3.659,1.362,1.362,0,1,1,2.067,1.773,36.787,36.787,0,0,0-2.592,3.406,1.361,1.361,0,0,1-1.131.6m7.881-8.53a1.362,1.362,0,0,1-.847-2.428A39.221,39.221,0,0,1,1369.38,322a1.362,1.362,0,1,1,1.431,2.318,36.34,36.34,0,0,0-3.5,2.456,1.356,1.356,0,0,1-.846.3m10.1-5.728a1.362,1.362,0,0,1-.481-2.636,39.618,39.618,0,0,1,4.389-1.37,1.362,1.362,0,0,1,.659,2.642,36.858,36.858,0,0,0-4.086,1.276,1.363,1.363,0,0,1-.481.088m15.805-2.388c-.029,0-.057,0-.087,0-.751-.047-1.514-.071-2.268-.071-.67.012-1.343.018-2.011.056a1.362,1.362,0,0,1-.151-2.719c.718-.04,1.444-.069,2.163-.06.81,0,1.63.026,2.438.076a1.362,1.362,0,0,1-.084,2.721" transform="translate(-1350.766 -316.151)" fill="none"/>
    </clipPath>
    <clipPath id="clip-path-25">
      <path id="Tracé_1660" data-name="Tracé 1660" d="M1524.117,323.865a1.357,1.357,0,0,1-.419-.067c-.661-.214-1.339-.412-2.015-.588a1.362,1.362,0,0,1,.688-2.635c.726.19,1.454.4,2.165.633a1.362,1.362,0,0,1-.419,2.658" transform="translate(-1520.664 -320.53)" fill="none"/>
    </clipPath>
    <clipPath id="clip-path-26">
      <rect id="Rectangle_1735" data-name="Rectangle 1735" width="53.801" height="58.578" fill="none"/>
    </clipPath>
    <clipPath id="clip-path-27">
      <path id="Tracé_1661" data-name="Tracé 1661" d="M1608.24,392.013a1.362,1.362,0,0,1-1.235-.786c-.294-.629-.611-1.26-.943-1.875a1.362,1.362,0,1,1,2.4-1.293c.357.66.7,1.339,1.014,2.016a1.362,1.362,0,0,1-1.233,1.938" transform="translate(-1605.898 -387.343)" fill="none"/>
    </clipPath>
    <clipPath id="clip-path-28">
      <path id="Tracé_1662" data-name="Tracé 1662" d="M1476.816,468.218a39.153,39.153,0,0,1-4.375-.247,1.362,1.362,0,0,1,.306-2.707,36.284,36.284,0,0,0,4.069.229h.14a1.362,1.362,0,0,1,.008,2.724Zm7.2-.692a1.362,1.362,0,0,1-.256-2.7q.629-.121,1.258-.266c.95-.218,1.9-.477,2.826-.767a1.362,1.362,0,1,1,.817,2.6c-.992.312-2.013.589-3.032.824q-.676.156-1.353.286a1.372,1.372,0,0,1-.259.025m10.771-3.823a1.362,1.362,0,0,1-.646-2.562,36.265,36.265,0,0,0,3.586-2.2,1.362,1.362,0,0,1,1.558,2.234,39.128,39.128,0,0,1-3.855,2.37,1.355,1.355,0,0,1-.643.162m9.125-6.872a1.362,1.362,0,0,1-.974-2.313,36.662,36.662,0,0,0,2.763-3.176,1.362,1.362,0,1,1,2.154,1.666,39.47,39.47,0,0,1-2.969,3.412,1.357,1.357,0,0,1-.974.411m6.661-9.282a1.363,1.363,0,0,1-1.212-1.981,36.8,36.8,0,0,0,1.7-3.855,1.362,1.362,0,1,1,2.552.952,39.494,39.494,0,0,1-1.822,4.141,1.36,1.36,0,0,1-1.214.743m3.6-10.846a1.364,1.364,0,0,1-1.344-1.591,36.454,36.454,0,0,0,.464-4.186,1.362,1.362,0,0,1,2.72.142,39.076,39.076,0,0,1-.5,4.5,1.362,1.362,0,0,1-1.341,1.134m.18-11.428A1.362,1.362,0,0,1,1513,424.1c-.148-1.086-.349-2.183-.6-3.259q-.1-.44-.212-.876a1.362,1.362,0,1,1,2.639-.672q.118.466.227.938c.265,1.156.481,2.333.64,3.5a1.362,1.362,0,0,1-1.165,1.534,1.416,1.416,0,0,1-.186.013" transform="translate(-1471.233 -418.265)" fill="none"/>
    </clipPath>
    <clipPath id="clip-path-29">
      <path id="Tracé_1663" data-name="Tracé 1663" d="M1442.311,582.405a1.363,1.363,0,0,1-.405-.062c-.711-.221-1.429-.468-2.133-.732a1.362,1.362,0,1,1,.957-2.55c.655.246,1.323.475,1.986.681a1.362,1.362,0,0,1-.4,2.662" transform="translate(-1438.889 -578.974)" fill="none"/>
    </clipPath>
    <clipPath id="clip-path-30">
      <path id="Tracé_1664" data-name="Tracé 1664" d="M1428.347,410.933q0,.191,0,.382a17.549,17.549,0,0,0,2.3,8.7.545.545,0,0,0,.946-.54,16.458,16.458,0,0,1-2.157-8.157q0-.179,0-.359a16.49,16.49,0,0,1,32.976.354c0,.119,0,.239,0,.359-.005.263-.017.524-.035.784a16.511,16.511,0,0,1-16.446,15.35c-.12,0-.241,0-.361,0a16.608,16.608,0,0,1-3.483-.445.545.545,0,1,0-.252,1.06l.277.064a17.736,17.736,0,0,0,3.435.411c.13,0,.26,0,.39,0a17.58,17.58,0,0,0,17.565-17.2q0-.191,0-.382a17.6,17.6,0,0,0-17.2-17.573c-.13,0-.258,0-.387,0a17.6,17.6,0,0,0-17.568,17.2" transform="translate(-1428.343 -393.733)" fill="none"/>
    </clipPath>
    <clipPath id="clip-path-32">
      <rect id="Rectangle_1741" data-name="Rectangle 1741" width="72.481" height="59.365" fill="none"/>
    </clipPath>
    <clipPath id="clip-path-33">
      <path id="Tracé_1665" data-name="Tracé 1665" d="M400.853,1003.42a.545.545,0,0,1-.522-.392q-.194-.66-.368-1.328a.545.545,0,1,1,1.054-.275q.17.652.359,1.3a.546.546,0,0,1-.523.7" transform="translate(-399.944 -1001.018)" fill="none"/>
    </clipPath>
    <clipPath id="clip-path-34">
      <path id="Tracé_1666" data-name="Tracé 1666" d="M396.126,852.223a.545.545,0,0,1-.534-.438c-.174-.877-.325-1.771-.448-2.66a.545.545,0,1,1,1.079-.149c.12.867.267,1.74.437,2.6a.545.545,0,0,1-.428.641.565.565,0,0,1-.107.01m-.729-5.276a.545.545,0,0,1-.543-.5c-.07-.892-.114-1.8-.132-2.693a.545.545,0,1,1,1.089-.022c.017.874.061,1.759.129,2.629a.545.545,0,0,1-.5.586l-.043,0m-.106-5.326h-.021a.545.545,0,0,1-.524-.565q.028-.723.078-1.449.043-.623.1-1.24a.545.545,0,0,1,1.085.1q-.058.6-.1,1.212-.048.709-.076,1.416a.545.545,0,0,1-.544.524m.509-5.3a.581.581,0,0,1-.084-.006.545.545,0,0,1-.455-.622c.137-.885.3-1.777.49-2.65a.545.545,0,1,1,1.065.229c-.184.853-.344,1.723-.478,2.588a.545.545,0,0,1-.538.461m1.121-5.206a.556.556,0,0,1-.146-.02.544.544,0,0,1-.379-.67c.239-.862.508-1.728.8-2.575a.545.545,0,0,1,1.031.353c-.283.827-.545,1.673-.779,2.514a.545.545,0,0,1-.524.4m1.724-5.038a.545.545,0,0,1-.5-.752c.34-.83.709-1.66,1.1-2.467a.545.545,0,1,1,.982.472c-.379.788-.739,1.6-1.071,2.409a.545.545,0,0,1-.5.338m2.31-4.807a.545.545,0,0,1-.475-.809c.435-.782.9-1.563,1.379-2.32a.545.545,0,0,1,.92.584c-.47.739-.923,1.5-1.347,2.265a.545.545,0,0,1-.477.28m2.858-4.5a.545.545,0,0,1-.441-.863c.524-.728,1.077-1.448,1.641-2.142a.545.545,0,0,1,.845.688c-.551.677-1.09,1.38-1.6,2.091a.543.543,0,0,1-.442.226m3.364-4.133a.545.545,0,0,1-.4-.913c.6-.66,1.237-1.311,1.879-1.935a.545.545,0,1,1,.759.781c-.627.609-1.244,1.244-1.835,1.889a.544.544,0,0,1-.4.177M411,808.923a.545.545,0,0,1-.356-.957c.677-.585,1.38-1.158,2.09-1.7a.545.545,0,0,1,.663.864c-.693.531-1.379,1.091-2.041,1.662a.542.542,0,0,1-.356.132m4.225-3.241a.545.545,0,0,1-.307-1c.742-.5,1.507-.991,2.273-1.447a.545.545,0,1,1,.558.936c-.748.446-1.495.921-2.219,1.413a.541.541,0,0,1-.305.094m48-1.88a.544.544,0,0,1-.269-.071c-.756-.432-1.538-.848-2.324-1.236a.545.545,0,1,1,.483-.977c.8.4,1.606.824,2.381,1.266a.545.545,0,0,1-.271,1.018m-43.433-.847a.545.545,0,0,1-.252-1.028c.793-.412,1.609-.807,2.425-1.172a.545.545,0,1,1,.445.994c-.8.357-1.593.741-2.368,1.144a.539.539,0,0,1-.25.062m38.658-1.514a.545.545,0,0,1-.212-.043c-.8-.34-1.629-.661-2.454-.954a.545.545,0,0,1,.365-1.027c.844.3,1.69.629,2.513.977a.545.545,0,0,1-.213,1.047m-33.8-.659a.545.545,0,0,1-.193-1.054c.836-.317,1.692-.612,2.544-.879a.545.545,0,1,1,.325,1.04c-.832.26-1.667.549-2.484.858a.547.547,0,0,1-.193.035m28.783-1.124a.539.539,0,0,1-.152-.022c-.836-.243-1.694-.464-2.549-.658a.545.545,0,0,1,.241-1.062c.876.2,1.754.426,2.612.675a.545.545,0,0,1-.152,1.068m-23.705-.464a.545.545,0,0,1-.131-1.073c.87-.217,1.756-.41,2.634-.574a.545.545,0,0,1,.2,1.071c-.857.16-1.722.349-2.571.56a.54.54,0,0,1-.132.016m18.511-.717a.506.506,0,0,1-.09-.008c-.863-.143-1.741-.263-2.61-.356a.545.545,0,0,1,.116-1.083c.89.1,1.789.218,2.672.365a.545.545,0,0,1-.088,1.082m-13.277-.263a.545.545,0,0,1-.068-1.085c.888-.112,1.79-.2,2.684-.26a.544.544,0,0,1,.073,1.087c-.872.059-1.753.144-2.619.254a.576.576,0,0,1-.069,0m7.979-.3h-.028c-.74-.036-1.491-.055-2.232-.055l-.4,0a.545.545,0,0,1-.008-1.089l.409,0c.759,0,1.528.019,2.286.056a.545.545,0,0,1-.026,1.089" transform="translate(-394.722 -796.766)" fill="none"/>
    </clipPath>
    <clipPath id="clip-path-35">
      <path id="Tracé_1667" data-name="Tracé 1667" d="M648.334,824.978a.54.54,0,0,1-.31-.1q-.552-.383-1.115-.751a.545.545,0,1,1,.595-.913q.577.376,1.142.769a.545.545,0,0,1-.311.992" transform="translate(-646.661 -823.129)" fill="none"/>
    </clipPath>
    <clipPath id="clip-path-36">
      <rect id="Rectangle_1745" data-name="Rectangle 1745" width="74.189" height="55.625" fill="none"/>
    </clipPath>
    <clipPath id="clip-path-37">
      <path id="Tracé_1668" data-name="Tracé 1668" d="M718.323,929.7a.545.545,0,0,1-.536-.453q-.114-.663-.248-1.322a.545.545,0,1,1,1.067-.217q.137.674.254,1.354a.544.544,0,0,1-.444.629.524.524,0,0,1-.093.008" transform="translate(-717.527 -927.277)" fill="none"/>
    </clipPath>
    <clipPath id="clip-path-38">
      <path id="Tracé_1669" data-name="Tracé 1669" d="M494.885,993.42h-.01c-.807-.014-1.625-.049-2.429-.105l-.358-.026a.545.545,0,0,1,.084-1.086l.35.026c.785.054,1.584.089,2.372.1a.545.545,0,0,1-.009,1.089m2.755-.036a.545.545,0,0,1-.023-1.089c.9-.039,1.816-.106,2.716-.2a.545.545,0,1,1,.113,1.083c-.921.1-1.857.165-2.781.2h-.024M489.389,993a.523.523,0,0,1-.075-.005c-.92-.126-1.846-.282-2.752-.463a.545.545,0,1,1,.213-1.068c.884.177,1.788.328,2.687.452a.545.545,0,0,1-.073,1.084m13.731-.185a.545.545,0,0,1-.089-1.082c.893-.149,1.791-.326,2.67-.528a.545.545,0,1,1,.244,1.061c-.9.207-1.821.389-2.736.541a.549.549,0,0,1-.09.008m-19.136-.894a.54.54,0,0,1-.139-.018c-.9-.237-1.8-.5-2.675-.793a.545.545,0,1,1,.342-1.035c.855.283,1.734.543,2.611.775a.545.545,0,0,1-.139,1.072m24.506-.34a.545.545,0,0,1-.154-1.067c.865-.255,1.734-.541,2.583-.849a.545.545,0,0,1,.371,1.024c-.87.315-1.76.608-2.646.87a.551.551,0,0,1-.155.023m-29.74-1.387a.542.542,0,0,1-.2-.039c-.858-.342-1.719-.717-2.559-1.113a.545.545,0,0,1,.465-.985c.82.387,1.66.753,2.5,1.087a.545.545,0,0,1-.2,1.051m34.913-.489a.545.545,0,0,1-.217-1.045c.829-.359,1.657-.748,2.462-1.156a.545.545,0,0,1,.493.971c-.825.418-1.673.817-2.522,1.185a.545.545,0,0,1-.216.045m-39.9-1.864a.539.539,0,0,1-.261-.068c-.813-.446-1.622-.923-2.4-1.416a.545.545,0,1,1,.581-.921c.764.482,1.553.947,2.346,1.383a.545.545,0,0,1-.262,1.022m44.807-.627a.545.545,0,0,1-.276-1.015c.78-.457,1.556-.944,2.306-1.446a.545.545,0,0,1,.606.9c-.768.515-1.562,1.013-2.362,1.481a.541.541,0,0,1-.275.075m4.576-3.066a.545.545,0,0,1-.33-.978c.719-.547,1.431-1.124,2.116-1.714a.545.545,0,0,1,.711.826c-.7.6-1.431,1.2-2.167,1.755a.542.542,0,0,1-.329.111m4.175-3.6a.545.545,0,0,1-.38-.935c.647-.629,1.285-1.287,1.9-1.956a.545.545,0,0,1,.8.734c-.625.685-1.278,1.359-1.941,2a.543.543,0,0,1-.379.154m3.713-4.072a.545.545,0,0,1-.424-.887c.567-.7,1.121-1.433,1.646-2.172a.545.545,0,0,1,.888.631c-.538.756-1.1,1.5-1.686,2.224a.544.544,0,0,1-.424.2m3.2-4.493a.545.545,0,0,1-.462-.833c.479-.769.941-1.562,1.371-2.356a.545.545,0,0,1,.958.519c-.441.814-.913,1.625-1.4,2.413a.544.544,0,0,1-.463.257m2.629-4.85a.545.545,0,0,1-.494-.774c.381-.82.743-1.664,1.074-2.507a.545.545,0,0,1,1.014.4c-.339.863-.71,1.727-1.1,2.568a.545.545,0,0,1-.494.315m2.016-5.131a.546.546,0,0,1-.518-.713c.278-.858.534-1.738.76-2.614a.545.545,0,1,1,1.055.272c-.231.9-.493,1.8-.778,2.678a.545.545,0,0,1-.518.377m1.377-5.335a.587.587,0,0,1-.1-.01.545.545,0,0,1-.431-.639c.172-.885.319-1.789.438-2.687a.545.545,0,0,1,1.08.143c-.121.919-.272,1.845-.448,2.752a.545.545,0,0,1-.534.441m.721-5.461-.041,0a.545.545,0,0,1-.5-.584l.008-.113c.06-.864.1-1.74.106-2.607a.545.545,0,0,1,.544-.538h.007a.545.545,0,0,1,.538.551c-.011.888-.047,1.786-.108,2.669l-.008.12a.545.545,0,0,1-.543.5m.064-5.511a.545.545,0,0,1-.544-.519c-.043-.9-.115-1.815-.214-2.715a.545.545,0,0,1,1.083-.118c.1.921.175,1.857.219,2.781a.545.545,0,0,1-.518.57h-.027" transform="translate(-470.845 -941.862)" fill="none"/>
    </clipPath>
    <clipPath id="clip-path-39">
      <path id="Tracé_1670" data-name="Tracé 1670" d="M460.286,1091.2a.543.543,0,0,1-.318-.1q-.559-.4-1.105-.821a.545.545,0,1,1,.663-.864q.533.409,1.079.8a.545.545,0,0,1-.319.987" transform="translate(-458.649 -1089.303)" fill="none"/>
    </clipPath>
    <clipPath id="clip-path-40">
      <path id="Tracé_1671" data-name="Tracé 1671" d="M467.771,834.551l-2.785,6.025a28.92,28.92,0,0,0-8.977,2.7l-5.648-3.5a.546.546,0,0,0-.632.041l-6.173,5.037a.546.546,0,0,0-.167.611l2.292,6.234a28.928,28.928,0,0,0-4.444,8.253l-6.462,1.52a.545.545,0,0,0-.418.476l-.8,7.926a.546.546,0,0,0,.314.55l6.025,2.786a28.936,28.936,0,0,0,2.7,8.977l-3.5,5.648a.545.545,0,0,0,.041.632l5.037,6.173a.546.546,0,0,0,.611.167l6.234-2.292a28.932,28.932,0,0,0,8.253,4.445l1.52,6.461a.546.546,0,0,0,.476.418l7.927.8a.545.545,0,0,0,.55-.314l2.786-6.025a28.927,28.927,0,0,0,8.977-2.7l5.648,3.5a.546.546,0,0,0,.632-.041l6.173-5.037a.546.546,0,0,0,.167-.611l-2.292-6.234a28.933,28.933,0,0,0,4.444-8.253l6.462-1.521a.545.545,0,0,0,.418-.476l.8-7.927a.545.545,0,0,0-.314-.55l-6.025-2.786a28.913,28.913,0,0,0-2.7-8.977l3.5-5.648a.545.545,0,0,0-.041-.632l-5.037-6.173a.546.546,0,0,0-.611-.167l-6.234,2.292a28.937,28.937,0,0,0-8.253-4.445l-1.52-6.461a.546.546,0,0,0-.476-.418l-7.927-.8a.527.527,0,0,0-.055,0,.545.545,0,0,0-.5.317" transform="translate(-433.552 -834.234)" fill="none"/>
    </clipPath>
    <clipPath id="clip-path-41">
      <path id="Tracé_1672" data-name="Tracé 1672" d="M536.193,946.012a6.53,6.53,0,0,1,2.943-11.7,6.645,6.645,0,0,1,.965-.071,6.53,6.53,0,0,1,.938,12.991,6.626,6.626,0,0,1-.966.071,6.479,6.479,0,0,1-3.88-1.29m2.784-12.779a7.62,7.62,0,0,0,1.095,15.158,7.744,7.744,0,0,0,1.127-.083,7.62,7.62,0,0,0-1.095-15.158,7.742,7.742,0,0,0-1.127.083" transform="translate(-532.468 -933.151)" fill="none"/>
    </clipPath>
    <clipPath id="clip-path-42">
      <path id="Tracé_1673" data-name="Tracé 1673" d="M496.615,893.617a19.777,19.777,0,0,0-5.4,23.706.545.545,0,1,0,.986-.463,18.615,18.615,0,0,1-1.763-7.914A18.682,18.682,0,0,1,511,890.349a18.683,18.683,0,0,1,16.8,18.547,19,19,0,0,1-.1,1.92,18.556,18.556,0,0,1-6.774,12.59l-.114.092-.053.043-.117.093a18.734,18.734,0,0,1-3.937,2.378l-.044.019-.007,0a18.553,18.553,0,0,1-9.1,1.514h-.008l-.315-.03a18.831,18.831,0,0,1-3.894-.816.545.545,0,1,0-.336,1.036q.182.059.365.114l.056.017a19.842,19.842,0,0,0,2.423.562q.635.106,1.276.171a19.787,19.787,0,0,0,21.763-19.708,19.772,19.772,0,0,0-17.778-19.629,20.071,20.071,0,0,0-2.024-.1,19.632,19.632,0,0,0-12.467,4.454" transform="translate(-489.344 -889.163)" fill="none"/>
    </clipPath>
    <clipPath id="clip-path-43">
      <path id="Tracé_1674" data-name="Tracé 1674" d="M539.08,532.475a22.1,22.1,0,0,0,10.328,3.506l3.08-3.037a25.337,25.337,0,0,1-9.026-7.984,24.377,24.377,0,0,0-4.381,7.515" transform="translate(-539.08 -524.96)" fill="none"/>
    </clipPath>
    <linearGradient id="linear-gradient-5" x1="-9.939" y1="15.45" x2="-9.92" y2="15.45" gradientUnits="objectBoundingBox">
      <stop offset="0" stop-color="#ff928e"/>
      <stop offset="1" stop-color="#feb3b1"/>
    </linearGradient>
    <clipPath id="clip-path-44">
      <path id="Tracé_1675" data-name="Tracé 1675" d="M510.3,483.464a19.994,19.994,0,0,0,8.028,10.894,24.378,24.378,0,0,1,4.381-7.515,28.648,28.648,0,0,1-5.141-14.742Z" transform="translate(-510.296 -472.101)" fill="none"/>
    </clipPath>
    <clipPath id="clip-path-45">
      <path id="Tracé_1676" data-name="Tracé 1676" d="M461.782,816.834c.468.584,1.835,1.4,5.8,1.58,3.623.167,7.131.062,9.472-.058-2.132-1.518-7.044-4.82-11.154-6.134l-2.822-.169a11.5,11.5,0,0,0-1.3,4.782" transform="translate(-461.782 -812.052)" fill="none"/>
    </clipPath>
    <clipPath id="clip-path-46">
      <path id="Tracé_1677" data-name="Tracé 1677" d="M461.611,829.664a1.321,1.321,0,0,0,1.214,1.427c2.968.225,10.325.732,13.873.546a.5.5,0,0,0,.26-.9l-.029-.021c-2.342.12-5.849.225-9.472.058-3.966-.182-5.333-1-5.8-1.58-.016.153-.032.306-.045.467" transform="translate(-461.607 -829.197)" fill="none"/>
    </clipPath>
    <clipPath id="clip-path-47">
      <path id="Tracé_1678" data-name="Tracé 1678" d="M367.562,813.079a4.691,4.691,0,0,0-1.81,1.541c-.363.614-1.369,2.361-2.051,3.548a.8.8,0,0,0-.107.422l7.07.247a1.411,1.411,0,0,0,.2-.97,27.369,27.369,0,0,0-1.02-4.789.853.853,0,0,0-.821-.438,3.629,3.629,0,0,0-1.461.438" transform="translate(-363.594 -812.641)" fill="none"/>
    </clipPath>
    <clipPath id="clip-path-48">
      <path id="Tracé_1679" data-name="Tracé 1679" d="M364.378,834.757l5.037.139a1.421,1.421,0,0,0,1.249-.674l-7.07-.247a.805.805,0,0,0,.783.782" transform="translate(-363.595 -833.975)" fill="none"/>
    </clipPath>
    <clipPath id="clip-path-49">
      <path id="Tracé_1680" data-name="Tracé 1680" d="M375.205,791.518c-.625,1.267-.593,4.536-.529,6.238a1.34,1.34,0,0,0,1.166,1.277c.365.047.713.074,1.012.089a1.11,1.11,0,0,0,1.142-.887c.4-1.944,1.314-6.372,1.374-6.576a6.978,6.978,0,0,0-2.8-.883,1.4,1.4,0,0,0-1.369.742" transform="translate(-374.644 -790.776)" fill="none"/>
    </clipPath>
    <linearGradient id="linear-gradient-6" x1="-21.795" y1="21.149" x2="-21.737" y2="21.149" xlink:href="#linear-gradient-5"/>
    <clipPath id="clip-path-50">
      <path id="Tracé_1681" data-name="Tracé 1681" d="M464.444,794.844c.392-.013-.156,2.023.436,4.023a1.028,1.028,0,0,0,.942.811c.3,0,.666,0,1.033-.031a1.137,1.137,0,0,0,1.047-1.024l.482-5.189Z" transform="translate(-464.444 -793.435)" fill="none"/>
    </clipPath>
    <linearGradient id="linear-gradient-7" x1="-31.58" y1="28.223" x2="-31.512" y2="28.223" xlink:href="#linear-gradient-5"/>
    <clipPath id="clip-path-51">
      <path id="Tracé_1682" data-name="Tracé 1682" d="M374.043,649.012a.929.929,0,0,0,.586,1.092,13.264,13.264,0,0,0,3.556.632.536.536,0,0,0,.548-.4c2.661-10.185,20.211-47.123,20.211-47.123-2.125,13.818-.39,43.172-.174,46.644a.446.446,0,0,0,.368.41,12.446,12.446,0,0,0,3.789.025.634.634,0,0,0,.546-.617c.375-18.63,6.547-54.634,6.722-55.485l-17.176-2.52c-7.073,9.253-17.49,51.249-18.976,57.344" transform="translate(-374.017 -591.668)" fill="none"/>
    </clipPath>
    <clipPath id="clip-path-52">
      <path id="Tracé_1683" data-name="Tracé 1683" d="M464.988,623.685l-2.35,2.4a.23.23,0,1,0,.329.322l2.35-2.4a.23.23,0,1,0-.329-.322" transform="translate(-462.572 -623.616)" fill="none" stroke="#3d4258" stroke-width="1"/>
    </clipPath>
    <clipPath id="clip-path-53">
      <path id="Tracé_1684" data-name="Tracé 1684" d="M449.917,429.484a3,3,0,0,0-2.825,2.813c-1,17.631-2.366,33.276-4.94,42.379,5.784,2.289,11.519,3.351,17.177,2.52a190.039,190.039,0,0,0,11.11-31.461s1.857-9.493.054-12.657a1.866,1.866,0,0,0-1.131-.958c-4.086-1.07-11.3-2.69-17.545-2.69-.645,0-1.279.017-1.9.054" transform="translate(-442.152 -429.43)" fill="none"/>
    </clipPath>
    <clipPath id="clip-path-54">
      <path id="Tracé_1685" data-name="Tracé 1685" d="M495.515,404.724a1.23,1.23,0,0,0,.668,1.228,8.99,8.99,0,0,0,6.794.725,1.147,1.147,0,0,0,.778-1.118l-.2-9.067-6.565-1.7s-1.138,6.791-1.478,9.932" transform="translate(-495.508 -394.792)" fill="none"/>
    </clipPath>
    <linearGradient id="linear-gradient-8" x1="-10.307" y1="32.32" x2="-10.286" y2="32.32" xlink:href="#linear-gradient-5"/>
    <clipPath id="clip-path-55">
      <path id="Tracé_1686" data-name="Tracé 1686" d="M495.938,371.044c-.491,1.665,1.7,5.729,1.7,5.729a6.51,6.51,0,0,0,7.039,3.63c3.062-.533,2.491-2.252,2.344-4.9s-2.344-7.694-2.344-7.694-8.246,1.569-8.738,3.234" transform="translate(-495.867 -367.81)" fill="none"/>
    </clipPath>
    <linearGradient id="linear-gradient-9" x1="-8.494" y1="17.966" x2="-8.476" y2="17.966" xlink:href="#linear-gradient-5"/>
    <clipPath id="clip-path-56">
      <path id="Tracé_1687" data-name="Tracé 1687" d="M495.16,348.163l-.127.242a.208.208,0,0,1-.384-.04.207.207,0,0,0-.373-.057c-.367.589-1.359,1.547-4.022,2.039-3.778.7-6.276,2.226-6.337,4.838a.208.208,0,0,1-.322.17c-.279-.17-.725-.25-1.322.252-1.037.872-.613,3.135,1.661,5a.207.207,0,0,1-.01.333c-.412.269-1.027.907.566,1.758a4.246,4.246,0,0,0,2.957.682.208.208,0,0,0,.158-.215l-.143-2.314a.208.208,0,0,1,.208-.221h1.212s-1.595-3.272-.194-3.846,6.953-1.707,8.151-3.677a3.663,3.663,0,0,0-1.416-5.038.185.185,0,0,0-.078-.017.212.212,0,0,0-.185.113" transform="translate(-481.737 -348.05)" fill="none"/>
    </clipPath>
    <clipPath id="clip-path-57">
      <path id="Tracé_1688" data-name="Tracé 1688" d="M496.889,386.156c-1.445.9.75,3.611,1.912,3.732l.371-1.412S498.528,386,497.394,386a.948.948,0,0,0-.505.16" transform="translate(-496.413 -385.996)" fill="none"/>
    </clipPath>
    <linearGradient id="linear-gradient-10" x1="-28.371" y1="58.982" x2="-28.313" y2="58.982" xlink:href="#linear-gradient-5"/>
    <clipPath id="clip-path-59">
      <path id="Tracé_1693" data-name="Tracé 1693" d="M393.174,520.093c-.869,10.02,2.928,14.535,2.928,14.535l2.939-.784a28.14,28.14,0,0,1,.974-12.961,15.244,15.244,0,0,0-5.053-.924,11.859,11.859,0,0,0-1.787.133" transform="translate(-393.045 -519.96)" fill="none"/>
    </clipPath>
    <linearGradient id="linear-gradient-11" x1="-7.131" y1="15.432" x2="-7.112" y2="15.432" xlink:href="#linear-gradient-5"/>
    <clipPath id="clip-path-60">
      <path id="Tracé_1694" data-name="Tracé 1694" d="M413.474,430.645c-3.334,1.861-17.5,10.362-19.487,21.413-.228,1.267-.381,2.46-.479,3.586a14.335,14.335,0,0,1,6.84.791c1.7-4.778,5.438-9.292,13.328-10.353l.474-15.022a.458.458,0,0,0-.455-.474.448.448,0,0,0-.221.058" transform="translate(-393.508 -430.587)" fill="none"/>
    </clipPath>
    <clipPath id="clip-path-61">
      <path id="Tracé_1695" data-name="Tracé 1695" d="M589.9,560.309l-1.436,2.327-1.313.639c1.2.331,3.522-.22,6.2-1.054a1.905,1.905,0,0,0,1.231-1.066c.451-1.011.959-2.63-.126-3.124a1.357,1.357,0,0,0-.568-.115c-1.652,0-3.987,2.393-3.987,2.393" transform="translate(-587.155 -557.916)" fill="none"/>
    </clipPath>
    <linearGradient id="linear-gradient-12" x1="-19.77" y1="24.763" x2="-19.736" y2="24.763" xlink:href="#linear-gradient-5"/>
    <clipPath id="clip-path-62">
      <path id="Tracé_1696" data-name="Tracé 1696" d="M405.01,564.477h-2.743c-3.133,8.677,5.743,11.531,5.094,10.384A18.706,18.706,0,0,1,405.6,568.1c.1-1.859,3.045-3.626,3.045-3.626Z" transform="translate(-401.595 -564.477)" fill="none"/>
    </clipPath>
    <linearGradient id="linear-gradient-13" x1="-7.422" y1="16.224" x2="-7.403" y2="16.224" xlink:href="#linear-gradient-5"/>
    <clipPath id="clip-path-63">
      <path id="Tracé_1697" data-name="Tracé 1697" d="M1567.485,1204.864s13.066,28.478,19.921,40.273c0,0,1.362,7.422,0,9.756l-1.16.516,5.415-.161s.481-9.983.105-10.541a1.379,1.379,0,0,0-1.127-.521s-2.322-18.4-9.047-22.323l-6.517-22.447Z" transform="translate(-1567.485 -1199.415)" fill="none"/>
    </clipPath>
    <linearGradient id="linear-gradient-14" x1="-6.93" y1="1.191" x2="-6.926" y2="1.191" xlink:href="#linear-gradient-5"/>
    <clipPath id="clip-path-64">
      <path id="Tracé_1698" data-name="Tracé 1698" d="M1633.321,1363.44c.436,1.787.823,6.418-.278,6.957a16.066,16.066,0,0,1-4.268.634s-2.24.222-2.313,1.4c-.008.13,4.229.071,6.53.029a1.83,1.83,0,0,0,1.755-1.443l1.738-9.131a1.642,1.642,0,0,0-1.247-1.908l-.97-.222a5.2,5.2,0,0,0-.948,3.686" transform="translate(-1626.462 -1359.754)" fill="none"/>
    </clipPath>
    <clipPath id="clip-path-65">
      <path id="Tracé_1699" data-name="Tracé 1699" d="M1526.31,1391.29l-3.857,2.2a.478.478,0,0,0,.241.894c3.851-.039,12.482-.161,13.249-.479.99-.412-.361-3.97-1.782-5.174Z" transform="translate(-1522.21 -1388.728)" fill="none"/>
    </clipPath>
    <clipPath id="clip-path-66">
      <path id="Tracé_1700" data-name="Tracé 1700" d="M1525.174,1261.255l-5.65,3.546s2.832-.482,4.931-.634,4.031-2.562,4.031-2.562l-.677-1.08s-2.117-40.625-1.6-45.238l-11.865-2.847s8.444,40.847,10.832,48.815" transform="translate(-1514.342 -1212.44)" fill="none"/>
    </clipPath>
    <linearGradient id="linear-gradient-15" x1="-7.506" y1="1.48" x2="-7.501" y2="1.48" xlink:href="#linear-gradient-5"/>
    <clipPath id="clip-path-67">
      <path id="Tracé_1701" data-name="Tracé 1701" d="M1488.654,980.788,1485.318,991a1.864,1.864,0,0,0,.739,2.13l.684.456c-.5,1.479-1.152,3.018-.273,4.308,3.044,4.466,6.9,13.424,6.9,13.424l13.7.062-.334-3.868,4.2-23.716c-6.845.118-17.809-2.767-21.046-3.664a1.017,1.017,0,0,0-1.238.66" transform="translate(-1485.225 -980.091)" fill="none"/>
    </clipPath>
    <clipPath id="clip-path-68">
      <path id="Tracé_1702" data-name="Tracé 1702" d="M1507.913,1083.566l.27,2.343s-3.872,11.6,1.937,38.682c0,0,12.58,3.564,22.919-4.964,0,0-2.917-25.565-3.713-26.756-3.968-5.931-6.611-7.22-6.611-7.22l-.119-2.56s-11.059,2-14.681.475" transform="translate(-1506.919 -1083.091)" fill="none"/>
    </clipPath>
    <clipPath id="clip-path-69">
      <path id="Tracé_1703" data-name="Tracé 1703" d="M1529.716,964.372c2.125,2.8,8.655,1.487,8.655,1.487l-1.628-9.891-4.167-.378s-2.909,8.718-2.861,8.782" transform="translate(-1529.716 -955.59)" fill="none"/>
    </clipPath>
    <linearGradient id="linear-gradient-16" x1="-49.014" y1="11.315" x2="-48.982" y2="11.315" xlink:href="#linear-gradient-5"/>
    <clipPath id="clip-path-70">
      <path id="Tracé_1704" data-name="Tracé 1704" d="M1532.436,905.19c-.278.173-8.9,3.737-7.05,12.693a1.681,1.681,0,0,0,.956,1.2,14.613,14.613,0,0,0,7.25,1.2c4.518-.459,7.479-8.344,7.354-10.639-.1-1.9-3.977-4.877-6.87-4.877a3.057,3.057,0,0,0-1.639.426" transform="translate(-1525.125 -904.764)" fill="none"/>
    </clipPath>
    <linearGradient id="linear-gradient-17" x1="-19.928" y1="6.708" x2="-19.915" y2="6.708" xlink:href="#linear-gradient-5"/>
    <clipPath id="clip-path-71">
      <path id="Tracé_1705" data-name="Tracé 1705" d="M1405.3,902.624a5.753,5.753,0,0,1-6.4-.64c-3.2-2.559.64,3.838,3.838,5.118,0,0-1.229,25.2,19.812,25.6a1.838,1.838,0,0,0,1.749-1.175l1.768-4.6a1.828,1.828,0,0,0-1.628-2.482,20.138,20.138,0,0,1-13.383-5.827c-3.035-3.034-3.839-14.074-3.839-14.074s-.64-5.118-1.919-5.118,0,3.2,0,3.2" transform="translate(-1397.697 -899.425)" fill="none"/>
    </clipPath>
    <linearGradient id="linear-gradient-18" x1="-10.563" y1="4.298" x2="-10.556" y2="4.298" xlink:href="#linear-gradient-5"/>
    <clipPath id="clip-path-72">
      <path id="Tracé_1706" data-name="Tracé 1706" d="M1535.62,898.188a7.4,7.4,0,0,0,1.521,7.573,4.7,4.7,0,0,1,.576,4.915,11.809,11.809,0,0,0-.192,8.99,4.675,4.675,0,0,1-.217,3.732,18.24,18.24,0,1,0,25.5-7.888,6.573,6.573,0,0,1-2.957-3.738,11.861,11.861,0,0,0-4.092-5.78,6.516,6.516,0,0,1-2.491-4.168,9.718,9.718,0,0,0-6.1-7.091,11.035,11.035,0,0,0-4.223-.86c-3.284,0-6.188,1.577-7.324,4.316" transform="translate(-1535.137 -893.872)" fill="none"/>
    </clipPath>
  </defs>
  <g id="Groupe_1311" data-name="Groupe 1311" clip-path="url(#clip-path)">
    <g id="Groupe_1158" data-name="Groupe 1158" transform="translate(17.031 0.001)">
      <g id="Groupe_1157" data-name="Groupe 1157" clip-path="url(#clip-path-2)">
        <rect id="Rectangle_1703" data-name="Rectangle 1703" width="662.046" height="449.535" transform="matrix(0.996, -0.094, 0.094, 0.996, -81.494, -2.914)" fill="url(#linear-gradient)"/>
      </g>
    </g>
    <g id="Groupe_1160" data-name="Groupe 1160" transform="translate(0 0.001)">
      <g id="Groupe_1159" data-name="Groupe 1159" clip-path="url(#clip-path-3)">
        <path id="Tracé_1619" data-name="Tracé 1619" d="M69.808,207.368c.61,63.613,18.2,232.1,184.225,268.545a16.113,16.113,0,0,0,19.435-13.8c5.77-47.536,4.391-184.482-180.838-269.587a16.122,16.122,0,0,0-22.823,14.845" transform="translate(-50.339 -137.76)" fill="#949bb9"/>
        <path id="Tracé_1620" data-name="Tracé 1620" d="M.186,687.9c8.4,49.348,43.04,178.061,176.572,185.706a12.679,12.679,0,0,0,13.382-13.144c-1.437-37.652-19.56-143.88-174.07-186.937A12.686,12.686,0,0,0,.186,687.9" transform="translate(0 -485.345)" fill="#cacee0"/>
        <path id="Tracé_1621" data-name="Tracé 1621" d="M1539.651,432.148c23.682,4.735,53.925-21.084,63.668-49.291,10.026-29.028-8.357-41.188-8.215-81.468.161-45.757,23.963-52.652,39.707-114.328,3.552-13.915,24.108-94.442-1.369-109.536-23.557-13.956-89.724,26.1-101.321,77.36-8.269,36.553,17.294,51.9,7.531,94.475-8.567,37.356-31.081,37.9-39.707,73.937-10.5,43.877,8.612,102.635,39.707,108.852" transform="translate(-1079.534 -53.882)" fill="#cacee0"/>
        <path id="Tracé_1622" data-name="Tracé 1622" d="M1651.5,647.993c-6.384-49.3,6.07-125.356,17.642-180.478,12.529-59.68,26.748-108.359,26.89-108.844l1.971.578c-.142.484-14.342,49.1-26.854,108.7-11.538,54.962-23.959,130.768-17.612,179.778Z" transform="translate(-1189.663 -258.642)" fill="#6d7599"/>
        <path id="Tracé_1623" data-name="Tracé 1623" d="M1620.344,751.868c-29.193-15.211-39.185-67.443-22.591-84.419,11.212-11.47,27.292.595,42.8-11.3,19.805-15.181,5.236-43.772,20.807-80.852,13.251-31.555,45.037-61.415,63.611-55.288,19.444,6.413,29.684,54,13.079,82.635-10.8,18.623-27.328,19.538-30.914,36.859-4.161,20.1,15.942,29.264,16.051,48.749.2,35-64.228,83.734-102.848,63.611" transform="translate(-1146.382 -374.408)" fill="#949bb9"/>
        <path id="Tracé_1624" data-name="Tracé 1624" d="M1752.877,946.469a1.19,1.19,0,0,1-1.069-1.708c38.7-79.749,50.05-172.266,50.161-173.191a1.189,1.189,0,0,1,2.361.281c-.11.929-11.508,93.843-50.383,173.948a1.19,1.19,0,0,1-1.071.67" transform="translate(-1263.161 -555.632)" fill="#6d7599"/>
        <path id="Tracé_1625" data-name="Tracé 1625" d="M2039.252,639.373a.545.545,0,0,1-.43-.88c22.138-28.416,23.577-49.64,20.886-62.44-2.9-13.814-11.08-21.02-11.162-21.091a.545.545,0,0,1,.713-.824c.347.3,8.537,7.521,11.516,21.691,2.739,13.026,1.3,34.588-21.092,63.334a.544.544,0,0,1-.43.21" transform="translate(-1470.134 -399.5)" fill="#c8cfeb"/>
        <path id="Tracé_1626" data-name="Tracé 1626" d="M1633.827,1125.954a.543.543,0,0,1-.45-.237c-18.769-27.392-25.17-48.555-19.026-62.9,5.461-12.75,19.249-15.123,19.388-15.146a.545.545,0,0,1,.175,1.075c-.133.022-13.35,2.312-18.566,14.513-5.979,13.98.39,34.788,18.928,61.843a.544.544,0,0,1-.449.852" transform="translate(-1162.497 -755.482)" fill="#bdd0fb"/>
      </g>
    </g>
    <g id="Groupe_1164" data-name="Groupe 1164" transform="translate(89.339 56.968)">
      <g id="Groupe_1163" data-name="Groupe 1163" clip-path="url(#clip-path-4)">
        <rect id="Rectangle_1707" data-name="Rectangle 1707" width="79.361" height="5.747" transform="translate(0 0)" fill="url(#linear-gradient-2)"/>
      </g>
    </g>
    <g id="Groupe_1170" data-name="Groupe 1170" transform="translate(237.315 298.509)">
      <g id="Groupe_1169" data-name="Groupe 1169" clip-path="url(#clip-path-5)">
        <path id="Tracé_1711" data-name="Tracé 1711" d="M0,0H105.564V82.314H0Z" transform="translate(-1.365 0.023) rotate(-0.971)" fill="#3d4258"/>
      </g>
    </g>
    <g id="Groupe_1172" data-name="Groupe 1172" transform="translate(204.872 372.97)">
      <g id="Groupe_1171" data-name="Groupe 1171" clip-path="url(#clip-path-6)">
        <path id="Tracé_1713" data-name="Tracé 1713" d="M0,0H121.665V144.874H0Z" transform="translate(-11.675 13.839) rotate(-51.52)" fill="#3d4258"/>
      </g>
    </g>
    <g id="Groupe_1174" data-name="Groupe 1174" transform="translate(91.061 69.551)">
      <g id="Groupe_1173" data-name="Groupe 1173" clip-path="url(#clip-path-7)">
        <path id="Tracé_1712" data-name="Tracé 1712" d="M0,0H385.248V465.116H0Z" transform="translate(-84.077 238.062) rotate(-70.548)" fill="#3d4258"/>
      </g>
    </g>
    <g id="Groupe_1176" data-name="Groupe 1176" transform="translate(104.031 77.582)">
      <g id="Groupe_1175" data-name="Groupe 1175" clip-path="url(#clip-path-8)">
        <path id="Tracé_1714" data-name="Tracé 1714" d="M0,0H398.809V435.515H0Z" transform="translate(-108.064 161.21) rotate(-56.165)" fill="url(#linear-gradient-3)"/>
      </g>
    </g>
    <g id="Groupe_1178" data-name="Groupe 1178" transform="translate(0 0.001)">
      <g id="Groupe_1177" data-name="Groupe 1177" clip-path="url(#clip-path-3)">
        <path id="Tracé_1636" data-name="Tracé 1636" d="M741.619,1122.068h-.011l-370.009-7.49a.545.545,0,0,1,.022-1.089l370.009,7.49a.545.545,0,0,1-.011,1.089" transform="translate(-267.579 -802.949)" fill="#c8cfeb"/>
        <path id="Tracé_1637" data-name="Tracé 1637" d="M1051.192,1358.438a.545.545,0,0,1-.008-1.089l6.3-.092h.008a.545.545,0,0,1,.008,1.089l-6.3.092Z" transform="translate(-757.633 -978.733)" fill="#c8cfeb"/>
        <path id="Tracé_1638" data-name="Tracé 1638" d="M753.891,1370.664a.534.534,0,0,1-.086-.007.544.544,0,0,1-.452-.624l.9-5.63a6.328,6.328,0,0,1,6.166-5.339l66.829-.977a.545.545,0,0,1,.016,1.089l-66.829.977a5.24,5.24,0,0,0-5.106,4.421l-.9,5.63a.545.545,0,0,1-.537.459" transform="translate(-543.246 -979.332)" fill="#c8cfeb"/>
        <path id="Tracé_1639" data-name="Tracé 1639" d="M514.784,996.645a1.342,1.342,0,0,1-1.343-1.342V834.846a1.342,1.342,0,1,1,2.685,0V995.3a1.342,1.342,0,0,1-1.342,1.342" transform="translate(-370.248 -601.049)" fill="#6d7599"/>
        <path id="Tracé_1640" data-name="Tracé 1640" d="M326.8,996.645a1.342,1.342,0,0,1-1.342-1.342V834.846a1.342,1.342,0,1,1,2.685,0V995.3a1.342,1.342,0,0,1-1.342,1.342" transform="translate(-234.688 -601.049)" fill="#6d7599"/>
        <path id="Tracé_1641" data-name="Tracé 1641" d="M6.322,997.663a1.344,1.344,0,0,1-1.235-1.868L73.734,834.32a1.342,1.342,0,0,1,2.471,1.051L7.559,996.845a1.343,1.343,0,0,1-1.236.817" transform="translate(-3.591 -601.049)" fill="#6d7599"/>
        <path id="Tracé_1642" data-name="Tracé 1642" d="M158.362,997.663a1.344,1.344,0,0,1-1.235-1.868L225.774,834.32a1.342,1.342,0,0,1,2.471,1.051L159.6,996.845a1.343,1.343,0,0,1-1.236.817" transform="translate(-113.229 -601.049)" fill="#6d7599"/>
        <path id="Tracé_1643" data-name="Tracé 1643" d="M317.984,833.828H236.578a.655.655,0,0,1-.655-.655V830.7a.655.655,0,0,1,.655-.655h81.406a.655.655,0,0,1,.655.655v2.474a.654.654,0,0,1-.655.655" transform="translate(-170.127 -598.554)" fill="#6d7599"/>
        <path id="Tracé_1644" data-name="Tracé 1644" d="M257.358,924.72H214.83a1.342,1.342,0,0,1,0-2.685h42.528a1.342,1.342,0,1,1,0,2.685" transform="translate(-153.948 -664.89)" fill="#6d7599"/>
        <rect id="Rectangle_1714" data-name="Rectangle 1714" width="42.528" height="2.685" transform="translate(47.833 287.684)" fill="#6d7599"/>
        <rect id="Rectangle_1715" data-name="Rectangle 1715" width="42.528" height="2.685" transform="translate(35.2 318.223)" fill="#6d7599"/>
        <path id="Tracé_1645" data-name="Tracé 1645" d="M117.771,1253.225H75.243a1.342,1.342,0,0,1,0-2.685h42.528a1.342,1.342,0,1,1,0,2.685" transform="translate(-53.291 -901.778)" fill="#6d7599"/>
        <path id="Tracé_1646" data-name="Tracé 1646" d="M71.846,1362.729H29.318a1.342,1.342,0,0,1,0-2.685H71.846a1.342,1.342,0,0,1,0,2.685" transform="translate(-20.174 -980.743)" fill="#6d7599"/>
      </g>
    </g>
    <g id="Groupe_1180" data-name="Groupe 1180" transform="translate(175.842 232.372)">
      <g id="Groupe_1179" data-name="Groupe 1179" clip-path="url(#clip-path-10)">
        <rect id="Rectangle_1717" data-name="Rectangle 1717" width="5.157" height="4.087" transform="translate(-0.629 4.771) rotate(-84.258)" fill="#8fe1e7"/>
      </g>
    </g>
    <g id="Groupe_1182" data-name="Groupe 1182" transform="translate(171.773 85.929)">
      <g id="Groupe_1181" data-name="Groupe 1181" clip-path="url(#clip-path-11)">
        <rect id="Rectangle_1718" data-name="Rectangle 1718" width="159.296" height="190.419" transform="matrix(0.1, -0.995, 0.995, 0.1, -14.166, 140.869)" fill="#8fe1e7"/>
      </g>
    </g>
    <g id="Groupe_1184" data-name="Groupe 1184" transform="translate(351.967 105.38)">
      <g id="Groupe_1183" data-name="Groupe 1183" clip-path="url(#clip-path-12)">
        <path id="Tracé_1733" data-name="Tracé 1733" d="M0,0H4.42V5.267H0Z" transform="translate(-0.581 3.91) rotate(-84.258)" fill="#8fe1e7"/>
      </g>
    </g>
    <g id="Groupe_1186" data-name="Groupe 1186" transform="translate(401.266 178.705)">
      <g id="Groupe_1185" data-name="Groupe 1185" clip-path="url(#clip-path-13)">
        <path id="Tracé_1730" data-name="Tracé 1730" d="M0,0H5.176V3.842H0Z" transform="translate(-0.607 4.814) rotate(-84.258)" fill="#8fe1e7"/>
      </g>
    </g>
    <g id="Groupe_1188" data-name="Groupe 1188" transform="translate(224.741 187.719)">
      <g id="Groupe_1187" data-name="Groupe 1187" clip-path="url(#clip-path-14)">
        <path id="Tracé_1729" data-name="Tracé 1729" d="M0,0H150.247V194.111H0Z" transform="matrix(0.1, -0.995, 0.995, 0.1, -13.404, 131.4)" fill="#8fe1e7"/>
      </g>
    </g>
    <g id="Groupe_1190" data-name="Groupe 1190" transform="translate(217.24 293.881)">
      <g id="Groupe_1189" data-name="Groupe 1189" clip-path="url(#clip-path-15)">
        <path id="Tracé_1734" data-name="Tracé 1734" d="M0,0H4.494V5.2H0Z" transform="translate(-0.578 3.992) rotate(-84.258)" fill="#8fe1e7"/>
      </g>
    </g>
    <g id="Groupe_1192" data-name="Groupe 1192" transform="translate(199.373 112.537)">
      <g id="Groupe_1191" data-name="Groupe 1191" clip-path="url(#clip-path-16)">
        <rect id="Rectangle_1723" data-name="Rectangle 1723" width="252.028" height="252.019" transform="matrix(0.788, -0.615, 0.615, 0.788, -87.13, 67.963)" fill="url(#linear-gradient-4)"/>
      </g>
    </g>
    <g id="Groupe_1194" data-name="Groupe 1194" transform="translate(269.987 183.151)">
      <g id="Groupe_1193" data-name="Groupe 1193" clip-path="url(#clip-path-17)">
        <path id="Tracé_1727" data-name="Tracé 1727" d="M0,0H49.928V51.017H0Z" transform="translate(-13.146 33.504) rotate(-69.377)" fill="#8fe1e7"/>
      </g>
    </g>
    <g id="Groupe_1196" data-name="Groupe 1196" transform="translate(239.876 152.429)">
      <g id="Groupe_1195" data-name="Groupe 1195" clip-path="url(#clip-path-18)">
        <path id="Tracé_1726" data-name="Tracé 1726" d="M0,0H130.18V128.6H0Z" transform="translate(-33.56 87.818) rotate(-69.377)" fill="#8fe1e7"/>
      </g>
    </g>
    <g id="Groupe_1198" data-name="Groupe 1198" transform="translate(384.863 96.322)">
      <g id="Groupe_1197" data-name="Groupe 1197" clip-path="url(#clip-path-19)">
        <path id="Tracé_1732" data-name="Tracé 1732" d="M0,0H63.849V63.845H0Z" transform="matrix(1, -0.028, 0.028, 1, -1.737, 0.048)" fill="#20cbd9"/>
      </g>
    </g>
    <g id="Groupe_1200" data-name="Groupe 1200" transform="translate(409.114 120.573)">
      <g id="Groupe_1199" data-name="Groupe 1199" clip-path="url(#clip-path-20)">
        <rect id="Rectangle_1727" data-name="Rectangle 1727" width="16.66" height="16.997" transform="translate(-3.46 12.817) rotate(-75.864)" fill="#8fe1e7"/>
      </g>
    </g>
    <g id="Groupe_1220" data-name="Groupe 1220" transform="translate(0 0.001)">
      <g id="Groupe_1219" data-name="Groupe 1219" clip-path="url(#clip-path-3)">
        <g id="Groupe_1209" data-name="Groupe 1209" transform="translate(376.716 88.17)" opacity="0.64">
          <g id="Groupe_1208" data-name="Groupe 1208">
            <g id="Groupe_1207" data-name="Groupe 1207" clip-path="url(#clip-path-22)">
              <g id="Groupe_1202" data-name="Groupe 1202" transform="translate(5.05 56.75)">
                <g id="Groupe_1201" data-name="Groupe 1201" clip-path="url(#clip-path-23)">
                  <rect id="Rectangle_1728" data-name="Rectangle 1728" width="6.047" height="6.245" transform="translate(-2.24 0.965) rotate(-29.522)" fill="#a2d5db"/>
                </g>
              </g>
              <g id="Groupe_1204" data-name="Groupe 1204" transform="translate(-0.001 0)">
                <g id="Groupe_1203" data-name="Groupe 1203" clip-path="url(#clip-path-24)">
                  <rect id="Rectangle_1729" data-name="Rectangle 1729" width="63.499" height="67.238" transform="matrix(0.87, -0.493, 0.493, 0.87, -22.689, 12.841)" fill="#7eced4"/>
                </g>
              </g>
              <g id="Groupe_1206" data-name="Groupe 1206" transform="translate(47.382 1.222)">
                <g id="Groupe_1205" data-name="Groupe 1205" clip-path="url(#clip-path-25)">
                  <rect id="Rectangle_1730" data-name="Rectangle 1730" width="6.174" height="5.553" transform="translate(-1.637 0.7) rotate(-29.521)" fill="#a2d6db"/>
                </g>
              </g>
            </g>
          </g>
        </g>
        <g id="Groupe_1218" data-name="Groupe 1218" transform="translate(401.291 108.024)" opacity="0.64">
          <g id="Groupe_1217" data-name="Groupe 1217">
            <g id="Groupe_1216" data-name="Groupe 1216" clip-path="url(#clip-path-26)">
              <g id="Groupe_1211" data-name="Groupe 1211" transform="translate(46.577 0.001)">
                <g id="Groupe_1210" data-name="Groupe 1210" clip-path="url(#clip-path-27)">
                  <rect id="Rectangle_1732" data-name="Rectangle 1732" width="5.952" height="6.245" transform="translate(-2.279 0.987) rotate(-29.521)" fill="#badce1"/>
                </g>
              </g>
              <g id="Groupe_1213" data-name="Groupe 1213" transform="translate(9.02 8.625)">
                <g id="Groupe_1212" data-name="Groupe 1212" clip-path="url(#clip-path-28)">
                  <rect id="Rectangle_1733" data-name="Rectangle 1733" width="63.751" height="65.714" transform="translate(-21.556 12.02) rotate(-29.521)" fill="#a2d5db"/>
                </g>
              </g>
              <g id="Groupe_1215" data-name="Groupe 1215" transform="translate(0 53.445)">
                <g id="Groupe_1214" data-name="Groupe 1214" clip-path="url(#clip-path-29)">
                  <path id="Tracé_1731" data-name="Tracé 1731" d="M0,0H6.235V5.664H0Z" transform="translate(-1.724 0.699) rotate(-29.521)" fill="#a2d5db"/>
                </g>
              </g>
            </g>
          </g>
        </g>
      </g>
    </g>
    <g id="Groupe_1222" data-name="Groupe 1222" transform="translate(398.35 109.808)">
      <g id="Groupe_1221" data-name="Groupe 1221" clip-path="url(#clip-path-30)">
        <rect id="Rectangle_1737" data-name="Rectangle 1737" width="42.681" height="42.682" transform="matrix(0.244, -0.97, 0.97, 0.244, -8.327, 33.062)" fill="#8fe1e7"/>
      </g>
    </g>
    <g id="Groupe_1242" data-name="Groupe 1242" transform="translate(0 0.001)">
      <g id="Groupe_1241" data-name="Groupe 1241" clip-path="url(#clip-path-3)">
        <g id="Groupe_1231" data-name="Groupe 1231" transform="translate(110.084 222.209)" opacity="0.64">
          <g id="Groupe_1230" data-name="Groupe 1230">
            <g id="Groupe_1229" data-name="Groupe 1229" clip-path="url(#clip-path-32)">
              <g id="Groupe_1224" data-name="Groupe 1224" transform="translate(1.456 56.964)">
                <g id="Groupe_1223" data-name="Groupe 1223" clip-path="url(#clip-path-33)">
                  <path id="Tracé_1738" data-name="Tracé 1738" d="M0,0H1.574V2.46H0Z" transform="translate(-0.058 -0.058)" fill="#c4dade"/>
                </g>
              </g>
              <g id="Groupe_1226" data-name="Groupe 1226" transform="translate(0)">
                <g id="Groupe_1225" data-name="Groupe 1225" clip-path="url(#clip-path-34)">
                  <path id="Tracé_1737" data-name="Tracé 1737" d="M0,0H69.133V55.457H0Z" transform="translate(-0.006 0)" fill="#b8d9dd"/>
                </g>
              </g>
              <g id="Groupe_1228" data-name="Groupe 1228" transform="translate(70.263 7.352)">
                <g id="Groupe_1227" data-name="Groupe 1227" clip-path="url(#clip-path-35)">
                  <path id="Tracé_1740" data-name="Tracé 1740" d="M0,0H2.368V1.925H0Z" transform="translate(-0.076 -0.076)" fill="#c5dbde"/>
                </g>
              </g>
            </g>
          </g>
        </g>
        <g id="Groupe_1240" data-name="Groupe 1240" transform="translate(127.913 258.607)" opacity="0.64">
          <g id="Groupe_1239" data-name="Groupe 1239">
            <g id="Groupe_1238" data-name="Groupe 1238" clip-path="url(#clip-path-36)">
              <g id="Groupe_1233" data-name="Groupe 1233" transform="translate(72.198 0)">
                <g id="Groupe_1232" data-name="Groupe 1232" clip-path="url(#clip-path-37)">
                  <path id="Tracé_1736" data-name="Tracé 1736" d="M0,0H1.432V2.477H0Z" transform="translate(-0.049 -0.049)" fill="#b8d9dd"/>
                </g>
              </g>
              <g id="Groupe_1235" data-name="Groupe 1235" transform="translate(3.401 4.068)">
                <g id="Groupe_1234" data-name="Groupe 1234" clip-path="url(#clip-path-38)">
                  <path id="Tracé_1735" data-name="Tracé 1735" d="M0,0H70.868V51.587H0Z" transform="translate(-0.076 -0.03)" fill="#a2d5da"/>
                </g>
              </g>
              <g id="Groupe_1237" data-name="Groupe 1237" transform="translate(0 45.187)">
                <g id="Groupe_1236" data-name="Groupe 1236" clip-path="url(#clip-path-39)">
                  <path id="Tracé_1739" data-name="Tracé 1739" d="M0,0H2.326V1.971H0Z" transform="translate(-0.071 -0.07)" fill="#c4dade"/>
                </g>
              </g>
            </g>
          </g>
        </g>
      </g>
    </g>
    <g id="Groupe_1244" data-name="Groupe 1244" transform="translate(120.913 232.659)">
      <g id="Groupe_1243" data-name="Groupe 1243" clip-path="url(#clip-path-40)">
        <rect id="Rectangle_1747" data-name="Rectangle 1747" width="96.628" height="96.635" transform="matrix(0.514, -0.858, 0.858, 0.514, -31.07, 51.837)" fill="#20cbd9"/>
      </g>
    </g>
    <g id="Groupe_1246" data-name="Groupe 1246" transform="translate(148.5 260.246)">
      <g id="Groupe_1245" data-name="Groupe 1245" clip-path="url(#clip-path-41)">
        <rect id="Rectangle_1748" data-name="Rectangle 1748" width="17.827" height="18.171" transform="translate(-2.929 14.741) rotate(-79.562)" fill="#8fe1e7"/>
      </g>
    </g>
    <g id="Groupe_1248" data-name="Groupe 1248" transform="translate(136.473 247.978)">
      <g id="Groupe_1247" data-name="Groupe 1247" clip-path="url(#clip-path-42)">
        <rect id="Rectangle_1749" data-name="Rectangle 1749" width="46.049" height="46.049" transform="translate(-7.045 38.243) rotate(-79.562)" fill="#8fe1e7"/>
      </g>
    </g>
    <g id="Groupe_1250" data-name="Groupe 1250" transform="translate(150.344 146.406)">
      <g id="Groupe_1249" data-name="Groupe 1249" clip-path="url(#clip-path-43)">
        <rect id="Rectangle_1750" data-name="Rectangle 1750" width="15.045" height="16.435" transform="matrix(0.353, -0.936, 0.936, 0.353, -3.64, 9.647)" fill="url(#linear-gradient-5)"/>
      </g>
    </g>
    <g id="Groupe_1252" data-name="Groupe 1252" transform="translate(142.316 131.664)">
      <g id="Groupe_1251" data-name="Groupe 1251" clip-path="url(#clip-path-44)">
        <path id="Tracé_1724" data-name="Tracé 1724" d="M0,0H21.632V25.482H0Z" transform="matrix(0.875, -0.484, 0.484, 0.875, -9.427, 5.215)" fill="#20cbd9"/>
      </g>
    </g>
    <g id="Groupe_1254" data-name="Groupe 1254" transform="translate(128.786 226.473)">
      <g id="Groupe_1253" data-name="Groupe 1253" clip-path="url(#clip-path-45)">
        <path id="Tracé_1719" data-name="Tracé 1719" d="M0,0H15.273V6.528H0Z" transform="translate(0 0)" fill="#3d4258"/>
      </g>
    </g>
    <g id="Groupe_1256" data-name="Groupe 1256" transform="translate(128.737 231.254)">
      <g id="Groupe_1255" data-name="Groupe 1255" clip-path="url(#clip-path-46)">
        <path id="Tracé_1720" data-name="Tracé 1720" d="M0,0H3.365V15.893H0Z" transform="translate(-0.177 2.62) rotate(-87.308)" fill="#3d4258"/>
      </g>
    </g>
    <g id="Groupe_1258" data-name="Groupe 1258" transform="translate(101.403 226.637)">
      <g id="Groupe_1257" data-name="Groupe 1257" clip-path="url(#clip-path-47)">
        <path id="Tracé_1721" data-name="Tracé 1721" d="M0,0H7.328V6.2H0Z" transform="translate(-0.004)" fill="#3d4258"/>
      </g>
    </g>
    <g id="Groupe_1260" data-name="Groupe 1260" transform="translate(101.403 232.587)">
      <g id="Groupe_1259" data-name="Groupe 1259" clip-path="url(#clip-path-48)">
        <path id="Tracé_1722" data-name="Tracé 1722" d="M0,0H1.267V7.106H0Z" transform="translate(-0.044 0.934) rotate(-87.308)" fill="#3d4258"/>
      </g>
    </g>
    <g id="Groupe_1262" data-name="Groupe 1262" transform="translate(104.484 220.539)">
      <g id="Groupe_1261" data-name="Groupe 1261" clip-path="url(#clip-path-49)">
        <rect id="Rectangle_1756" data-name="Rectangle 1756" width="4.791" height="8.373" transform="translate(-0.064)" fill="url(#linear-gradient-6)"/>
      </g>
    </g>
    <g id="Groupe_1264" data-name="Groupe 1264" transform="translate(129.529 221.281)">
      <g id="Groupe_1263" data-name="Groupe 1263" clip-path="url(#clip-path-50)">
        <rect id="Rectangle_1757" data-name="Rectangle 1757" width="4.097" height="6.248" transform="translate(-0.156)" fill="url(#linear-gradient-7)"/>
      </g>
    </g>
    <g id="Groupe_1266" data-name="Groupe 1266" transform="translate(104.309 165.01)">
      <g id="Groupe_1265" data-name="Groupe 1265" clip-path="url(#clip-path-51)">
        <rect id="Rectangle_1758" data-name="Rectangle 1758" width="60.234" height="69.243" transform="matrix(0.876, -0.482, 0.482, 0.876, -25.02, 13.7)" fill="#3d4258"/>
      </g>
    </g>
    <g id="Groupe_1268" data-name="Groupe 1268" transform="translate(129.007 173.92)">
      <g id="Groupe_1267" data-name="Groupe 1267" clip-path="url(#clip-path-52)">
        <rect id="Rectangle_1759" data-name="Rectangle 1759" width="4.014" height="4.013" transform="translate(-1.409 1.792) rotate(-52.279)" fill="#3d4258"/>
      </g>
    </g>
    <g id="Groupe_1270" data-name="Groupe 1270" transform="translate(123.312 119.764)">
      <g id="Groupe_1269" data-name="Groupe 1269" clip-path="url(#clip-path-53)">
        <path id="Tracé_1728" data-name="Tracé 1728" d="M0,0H57.129V52.32H0Z" transform="translate(-22.648 33.101) rotate(-55.62)" fill="#20cbd9"/>
      </g>
    </g>
    <g id="Groupe_1272" data-name="Groupe 1272" transform="translate(138.192 110.103)">
      <g id="Groupe_1271" data-name="Groupe 1271" clip-path="url(#clip-path-54)">
        <rect id="Rectangle_1761" data-name="Rectangle 1761" width="13.167" height="8.834" transform="matrix(0.042, -0.999, 0.999, 0.042, -0.582, 12.81)" fill="url(#linear-gradient-8)"/>
      </g>
    </g>
    <g id="Groupe_1274" data-name="Groupe 1274" transform="translate(138.292 102.578)">
      <g id="Groupe_1273" data-name="Groupe 1273" clip-path="url(#clip-path-55)">
        <rect id="Rectangle_1762" data-name="Rectangle 1762" width="16.013" height="16.516" transform="translate(-4.606 1.508) rotate(-19.814)" fill="url(#linear-gradient-9)"/>
      </g>
    </g>
    <g id="Groupe_1276" data-name="Groupe 1276" transform="translate(134.351 97.067)">
      <g id="Groupe_1275" data-name="Groupe 1275" clip-path="url(#clip-path-56)">
        <path id="Tracé_1725" data-name="Tracé 1725" d="M0,0H22.752V22.533H0Z" transform="matrix(0.79, -0.613, 0.613, 0.79, -8.018, 5.838)" fill="#3d4258"/>
      </g>
    </g>
    <g id="Groupe_1278" data-name="Groupe 1278" transform="translate(138.444 107.65)">
      <g id="Groupe_1277" data-name="Groupe 1277" clip-path="url(#clip-path-57)">
        <rect id="Rectangle_1764" data-name="Rectangle 1764" width="4.826" height="4.925" transform="matrix(0.941, -0.339, 0.339, 0.941, -2.21, 0.447)" fill="url(#linear-gradient-10)"/>
      </g>
    </g>
    <g id="Groupe_1280" data-name="Groupe 1280" transform="translate(0 0.001)">
      <g id="Groupe_1279" data-name="Groupe 1279" clip-path="url(#clip-path-3)">
        <path id="Tracé_1689" data-name="Tracé 1689" d="M310.394,534.9l-2.966.75c-5.091,1.286-8.514,5.112-7.646,8.544l1.031,4.08c.868,3.432,5.7,5.171,10.788,3.885l2.967-.75q.294-.075.586-.161l86.984-26.027-2.247-8.89-88.9,18.432q-.3.062-.593.136m1.278,4.073c3.832-.969,7.406.092,7.982,2.369s-2.065,4.909-5.9,5.877-7.406-.092-7.982-2.369,2.065-4.908,5.9-5.877" transform="translate(-216.079 -372.333)" fill="#6575b4"/>
        <path id="Tracé_1690" data-name="Tracé 1690" d="M674.416,448.114,657.2,452.465a4.076,4.076,0,0,0-2.74,2.331l-2.575,5.946a4.074,4.074,0,0,0,1.218,4.821l5.091,4.008a4.076,4.076,0,0,0,3.519.749l17.213-4.351a3.131,3.131,0,0,1,3.576,4.434,23.432,23.432,0,0,1-15.161,11.932c-12.378,3.129-23.333-4.371-26.343-16.277s3.066-23.711,15.444-26.84a23.434,23.434,0,0,1,19.01,3.295,3.131,3.131,0,0,1-1.04,5.6" transform="translate(-461.684 -316.195)" fill="#6575b4"/>
        <path id="Tracé_1691" data-name="Tracé 1691" d="M675.887,453.931l-17.213,4.351a4.076,4.076,0,0,0-2.74,2.331l-2.575,5.946a4.074,4.074,0,0,0,1.218,4.821l5.091,4.008a4.075,4.075,0,0,0,3.519.749l17.212-4.351a3.131,3.131,0,0,1,3.576,4.434,23.433,23.433,0,0,1-15.161,11.932c-12.378,3.129-23.333-4.371-26.343-16.277s3.066-23.71,15.444-26.839a23.434,23.434,0,0,1,19.01,3.294,3.131,3.131,0,0,1-1.04,5.6" transform="translate(-462.745 -320.389)" fill="#c8cfeb"/>
        <path id="Tracé_1692" data-name="Tracé 1692" d="M311.567,539.54l-2.967.75c-5.09,1.287-8.513,5.112-7.646,8.544l1.031,4.08c.868,3.432,5.7,5.171,10.788,3.885l2.967-.75q.295-.074.586-.161l86.984-26.026-2.247-8.89-88.9,18.432q-.3.062-.592.136m1.277,4.072c3.832-.969,7.406.092,7.982,2.369s-2.065,4.909-5.9,5.877-7.406-.092-7.982-2.369,2.065-4.908,5.9-5.877" transform="translate(-216.925 -375.679)" fill="#c8cfeb"/>
      </g>
    </g>
    <g id="Groupe_1282" data-name="Groupe 1282" transform="translate(109.616 145.011)">
      <g id="Groupe_1281" data-name="Groupe 1281" clip-path="url(#clip-path-59)">
        <rect id="Rectangle_1766" data-name="Rectangle 1766" width="14.773" height="16.424" transform="translate(-7.661 4.908) rotate(-35.34)" fill="url(#linear-gradient-11)"/>
      </g>
    </g>
    <g id="Groupe_1284" data-name="Groupe 1284" transform="translate(109.745 120.086)">
      <g id="Groupe_1283" data-name="Groupe 1283" clip-path="url(#clip-path-60)">
        <path id="Tracé_1723" data-name="Tracé 1723" d="M0,0H32.994V31.639H0Z" transform="matrix(0.565, -0.825, 0.825, 0.565, -12.047, 17.607)" fill="#20cbd9"/>
      </g>
    </g>
    <g id="Groupe_1286" data-name="Groupe 1286" transform="translate(163.751 155.597)">
      <g id="Groupe_1285" data-name="Groupe 1285" clip-path="url(#clip-path-61)">
        <rect id="Rectangle_1768" data-name="Rectangle 1768" width="8.286" height="9.858" transform="translate(-1.88 4.981) rotate(-69.326)" fill="url(#linear-gradient-12)"/>
      </g>
    </g>
    <g id="Groupe_1288" data-name="Groupe 1288" transform="translate(112.001 157.427)">
      <g id="Groupe_1287" data-name="Groupe 1287" clip-path="url(#clip-path-62)">
        <rect id="Rectangle_1769" data-name="Rectangle 1769" width="14.427" height="14.906" transform="translate(-7.902 3.858) rotate(-35.34)" fill="url(#linear-gradient-13)"/>
      </g>
    </g>
    <g id="Groupe_1290" data-name="Groupe 1290" transform="translate(437.155 334.504)">
      <g id="Groupe_1289" data-name="Groupe 1289" clip-path="url(#clip-path-63)">
        <rect id="Rectangle_1770" data-name="Rectangle 1770" width="60.492" height="50.81" transform="matrix(0.536, -0.845, 0.845, 0.536, -25.324, 39.934)" fill="url(#linear-gradient-14)"/>
      </g>
    </g>
    <g id="Groupe_1292" data-name="Groupe 1292" transform="translate(453.603 379.221)">
      <g id="Groupe_1291" data-name="Groupe 1291" clip-path="url(#clip-path-64)">
        <path id="Tracé_1716" data-name="Tracé 1716" d="M0,0H13.146V10.628H0Z" transform="translate(-0.445 12.79) rotate(-88.044)" fill="#3d4258"/>
      </g>
    </g>
    <g id="Groupe_1294" data-name="Groupe 1294" transform="translate(424.528 387.302)">
      <g id="Groupe_1293" data-name="Groupe 1293" clip-path="url(#clip-path-65)">
        <rect id="Rectangle_1772" data-name="Rectangle 1772" width="6.164" height="15.093" transform="translate(-0.379 5.652) rotate(-88.044)" fill="#3d4258"/>
      </g>
    </g>
    <g id="Groupe_1296" data-name="Groupe 1296" transform="translate(422.334 338.137)">
      <g id="Groupe_1295" data-name="Groupe 1295" clip-path="url(#clip-path-66)">
        <rect id="Rectangle_1773" data-name="Rectangle 1773" width="53.633" height="33.984" transform="translate(-19.26 43.913) rotate(-66.318)" fill="url(#linear-gradient-15)"/>
      </g>
    </g>
    <g id="Groupe_1298" data-name="Groupe 1298" transform="translate(414.214 273.337)">
      <g id="Groupe_1297" data-name="Groupe 1297" clip-path="url(#clip-path-67)">
        <path id="Tracé_1718" data-name="Tracé 1718" d="M0,0H36.661V39.283H0Z" transform="translate(-12.131 5.564) rotate(-24.944)" fill="#20cbd9"/>
      </g>
    </g>
    <g id="Groupe_1300" data-name="Groupe 1300" transform="translate(420.264 302.063)">
      <g id="Groupe_1299" data-name="Groupe 1299" clip-path="url(#clip-path-68)">
        <path id="Tracé_1717" data-name="Tracé 1717" d="M0,0H53.2V50.373H0Z" transform="matrix(0.615, -0.788, 0.788, 0.615, -24.465, 28.005)" fill="#20cbd9"/>
      </g>
    </g>
    <g id="Groupe_1302" data-name="Groupe 1302" transform="translate(426.622 266.504)">
      <g id="Groupe_1301" data-name="Groupe 1301" clip-path="url(#clip-path-69)">
        <rect id="Rectangle_1776" data-name="Rectangle 1776" width="8.703" height="11.586" transform="translate(-0.047 0)" fill="url(#linear-gradient-16)"/>
      </g>
    </g>
    <g id="Groupe_1304" data-name="Groupe 1304" transform="translate(425.341 252.329)">
      <g id="Groupe_1303" data-name="Groupe 1303" clip-path="url(#clip-path-70)">
        <rect id="Rectangle_1777" data-name="Rectangle 1777" width="21.173" height="22.127" transform="translate(-6.997 13.718) rotate(-68.499)" fill="url(#linear-gradient-17)"/>
      </g>
    </g>
    <g id="Groupe_1306" data-name="Groupe 1306" transform="translate(389.803 250.84)">
      <g id="Groupe_1305" data-name="Groupe 1305" clip-path="url(#clip-path-71)">
        <rect id="Rectangle_1778" data-name="Rectangle 1778" width="36.446" height="34.257" transform="translate(-5.6 32.892) rotate(-83.746)" fill="url(#linear-gradient-18)"/>
      </g>
    </g>
    <g id="Groupe_1308" data-name="Groupe 1308" transform="translate(428.134 249.292)">
      <g id="Groupe_1307" data-name="Groupe 1307" clip-path="url(#clip-path-72)">
        <path id="Tracé_1715" data-name="Tracé 1715" d="M0,0H62.081V69.955H0Z" transform="translate(-24.222 12.193) rotate(-27.253)" fill="#3d4258"/>
      </g>
    </g>
    <g id="Groupe_1310" data-name="Groupe 1310" transform="translate(0 0.001)">
      <g id="Groupe_1309" data-name="Groupe 1309" clip-path="url(#clip-path-3)">
        <path id="Tracé_1707" data-name="Tracé 1707" d="M708.807,1023.034c-3.077-11.557-9.638-20.97-17.664-26.71a33.94,33.94,0,0,1-13.728-21.486q-.248-1.367-.614-2.745c-3.7-13.9-15.218-22.9-25.723-20.1s-16.021,16.332-12.32,30.231a33.684,33.684,0,0,0,3.176,7.851,34.1,34.1,0,0,1,3.556,24.9,50.029,50.029,0,0,0,.445,24.8c3.441,12.922,11.238,23.165,20.567,28.589a33.414,33.414,0,0,1,9.23,7.907c4.251,5.279,10.464,7.968,16.362,6.4,6.363-1.694,10.577-7.872,11.208-15.291a35.652,35.652,0,0,1,3.324-12.092c4.223-9.014,5.292-20.568,2.18-32.253" transform="translate(-459.786 -686.125)" fill="#cacee0"/>
        <path id="Tracé_1708" data-name="Tracé 1708" d="M712.23,1002.814c3.818,8.82,7.35,17.756,10.789,26.729.861,2.243,1.685,4.5,2.517,6.753l1.247,3.381,1.219,3.391c.8,2.264,1.639,4.516,2.417,6.79l2.335,6.819c1.5,4.566,3.036,9.119,4.449,13.712.71,2.3,1.465,4.577,2.128,6.887l2.022,6.92c2.6,9.253,4.973,18.576,6.868,28l-.405.085-1.686-7-.418-1.75-.461-1.74-.929-3.476-.922-3.477c-.305-1.159-.654-2.308-.978-3.462-.665-2.3-1.312-4.615-1.991-6.915-2.779-9.184-5.68-18.331-8.769-27.418-1.579-4.531-3.12-9.076-4.731-13.6l-1.2-3.394-1.227-3.384c-.817-2.256-1.634-4.512-2.474-6.76q-2.461-6.766-5.024-13.494-2.53-6.741-5.158-13.445Z" transform="translate(-513.32 -723.141)" fill="#6d7599"/>
        <path id="Tracé_1709" data-name="Tracé 1709" d="M596.832,1185.22a34.812,34.812,0,0,0-20.521-10.928,24.691,24.691,0,0,1-16.2-8.958q-.632-.786-1.343-1.538c-7.182-7.585-17.64-9.344-23.359-3.928s-4.532,15.953,2.65,23.538a24.524,24.524,0,0,0,4.748,3.909,24.816,24.816,0,0,1,10.911,14.654,36.4,36.4,0,0,0,8.892,15.66c6.677,7.052,15.2,10.889,23.022,11.124a24.264,24.264,0,0,1,8.623,1.853c4.539,1.9,9.43,1.465,12.64-1.575,3.464-3.28,4-8.676,1.829-13.626a25.908,25.908,0,0,1-2.081-8.86c-.44-7.209-3.771-14.946-9.808-21.323" transform="translate(-383.478 -834.127)" fill="#949bb9"/>
        <path id="Tracé_1710" data-name="Tracé 1710" d="M578.855,1190.124c5.494,4.305,10.845,8.783,16.15,13.317,1.327,1.133,2.635,2.287,3.947,3.437l1.968,1.725,1.953,1.741c1.3,1.166,2.612,2.314,3.9,3.495l3.854,3.542c2.54,2.394,5.1,4.766,7.594,7.207,1.249,1.219,2.521,2.413,3.746,3.657l3.689,3.714c4.869,5,9.616,10.128,14.094,15.483l-.228.195-3.5-3.88-.873-.972-.9-.95-1.8-1.9-1.794-1.9c-.6-.634-1.218-1.246-1.825-1.87-1.224-1.24-2.437-2.49-3.669-3.721q-7.437-7.345-15.1-14.455c-2.579-2.344-5.138-4.71-7.733-7.036l-1.942-1.75-1.956-1.734c-1.3-1.157-2.607-2.313-3.922-3.457q-3.916-3.464-7.884-6.869-3.951-3.424-7.952-6.791Z" transform="translate(-417.283 -858.212)" fill="#6d7599"/>
      </g>
    </g>
  </g>
</svg>
