<svg id="ellipsis-3x3-solid" xmlns="http://www.w3.org/2000/svg" width="32" height="32" viewBox="0 0 32 32">
  <rect id="Rectangle_1744" data-name="Rectangle 1744" width="32" height="32" fill="none"/>
  <path id="dot3x3" d="M19.649,23.159a3.509,3.509,0,1,1,3.509,3.509A3.51,3.51,0,0,1,19.649,23.159Zm-9.824,0a3.508,3.508,0,1,1,3.508,3.509A3.508,3.508,0,0,1,9.825,23.159ZM0,23.159a3.508,3.508,0,1,1,3.509,3.509A3.509,3.509,0,0,1,0,23.159Zm19.649-9.825a3.509,3.509,0,1,1,3.509,3.509A3.509,3.509,0,0,1,19.649,13.334Zm-9.824,0a3.508,3.508,0,1,1,3.508,3.509A3.508,3.508,0,0,1,9.825,13.334ZM0,13.334a3.508,3.508,0,1,1,3.509,3.509A3.509,3.509,0,0,1,0,13.334ZM19.649,3.509a3.509,3.509,0,1,1,3.509,3.509A3.509,3.509,0,0,1,19.649,3.509Zm-9.824,0a3.508,3.508,0,1,1,3.508,3.509A3.508,3.508,0,0,1,9.825,3.509ZM0,3.509A3.508,3.508,0,1,1,3.509,7.018,3.509,3.509,0,0,1,0,3.509Z" transform="translate(2.667 2.667)" fill="#121a39"/>
</svg>
