<svg xmlns="http://www.w3.org/2000/svg" width="40" height="40" viewBox="0 0 40 40">
  <g id="centre_medical" transform="translate(-611 -136)">
    <circle id="Ellipse_75" data-name="Ellipse 75" cx="20" cy="20" r="20" transform="translate(611 136)" fill="#20cbd9"/>
    <g id="house-medical-solid" transform="translate(617 142)">
      <rect id="Rectangle_1691" data-name="Rectangle 1691" width="28" height="28" fill="none"/>
      <path id="house-medical-solid-2" data-name="house-medical-solid" d="M22.031,11.651a1.306,1.306,0,0,0,1.3-1.3,1.11,1.11,0,0,0-.446-.972L12.539.284A1.346,1.346,0,0,0,11.688,0,1.169,1.169,0,0,0,10.8.324L.405,9.379A1.317,1.317,0,0,0,0,10.351a1.283,1.283,0,0,0,1.3,1.3h1.3v6.5a2.6,2.6,0,0,0,2.593,2.593H18.17a2.59,2.59,0,0,0,2.593-2.6l-.028-6.49h1.3ZM10.371,8.427a.65.65,0,0,1,.648-.648h1.3a.65.65,0,0,1,.648.648v1.945h1.945a.65.65,0,0,1,.648.648v1.3a.65.65,0,0,1-.648.648H12.964v1.945a.65.65,0,0,1-.648.648h-1.3a.65.65,0,0,1-.648-.648V12.964H8.427a.65.65,0,0,1-.648-.648v-1.3a.65.65,0,0,1,.648-.648h1.945Z" transform="translate(2.333 2.333)" fill="#fff"/>
    </g>
  </g>
</svg>
