<svg xmlns="http://www.w3.org/2000/svg" width="20" height="20.073" viewBox="0 0 20 20.073">
  <g id="send" transform="translate(0 0.037)">
    <rect id="Rectangle_1134" data-name="Rectangle 1134" width="20" height="20" fill="none"/>
    <path id="Soustraction_12" data-name="Soustraction 12" d="M.784,20.073a.782.782,0,0,1-.758-.58.782.782,0,0,1,.02-.466l2.937-8.24H9.515a.75.75,0,1,0,0-1.5H2.983L.046,1.047A.78.78,0,0,1,.276.186.792.792,0,0,1,.7,0C.729,0,.755,0,.781,0a.794.794,0,0,1,.381.1L17.684,9.352a.783.783,0,0,1,0,1.37L1.161,19.976A.78.78,0,0,1,.784,20.073Z" transform="translate(1.913 -0.037)" fill="#fff"/>
  </g>
</svg>
