<svg id="user-plus-solid" xmlns="http://www.w3.org/2000/svg" width="32.076" height="32" viewBox="0 0 32.076 32">
  <rect id="Rectangle_1778" data-name="Rectangle 1778" width="32" height="32" fill="none"/>
  <path id="user-plus-solid-2" data-name="user-plus-solid" d="M4.5,6a6,6,0,1,1,6,6,6,6,0,0,1-6-6ZM0,22.608A8.356,8.356,0,0,1,8.358,14.25h4.284A8.356,8.356,0,0,1,21,22.608,1.392,1.392,0,0,1,19.608,24H1.392A1.392,1.392,0,0,1,0,22.608Zm23.625-7.983v-3h-3a1.125,1.125,0,0,1,0-2.25h3v-3a1.125,1.125,0,0,1,2.25,0v3h3a1.125,1.125,0,0,1,0,2.25h-3v3a1.125,1.125,0,0,1-2.25,0Z" transform="translate(2.076 4)" fill="#0ab342"/>
</svg>
