<svg id="user-check-solid" xmlns="http://www.w3.org/2000/svg" width="32.144" height="32" viewBox="0 0 32.144 32">
  <rect id="Rectangle_1772" data-name="Rectangle 1772" width="32" height="32" fill="none"/>
  <path id="user-check-solid-2" data-name="user-check-solid" d="M4.5,6a6,6,0,1,1,6,6,6,6,0,0,1-6-6ZM0,22.608A8.356,8.356,0,0,1,8.358,14.25h4.284A8.356,8.356,0,0,1,21,22.608,1.392,1.392,0,0,1,19.608,24H1.392A1.392,1.392,0,0,1,0,22.608ZM29.3,8.3l-6,6a1.12,1.12,0,0,1-1.589,0l-3-3A1.124,1.124,0,0,1,20.3,9.708l2.2,2.2L27.7,6.7a1.124,1.124,0,0,1,1.589,1.589Z" transform="translate(2.523 4)" fill="#0aa4b3"/>
</svg>
